<?xml version="1.0" encoding="UTF-8"?> <!-- Generator: Adobe Illustrator 19.2.0, SVG Export Plug-In . SVG Version: 6.00 Build 0) --> <svg xmlns="http://www.w3.org/2000/svg" xmlns:xlink="http://www.w3.org/1999/xlink" version="1.1" id="Layer_1" x="0px" y="0px" viewBox="0 0 450.6 35" style="enable-background:new 0 0 450.6 35;" xml:space="preserve"> <style type="text/css"> .st0{fill:#0059A0;} .st1{fill:#F9A61C;} .st2{fill:#EC2130;} .st3{fill:#FCB131;} .st4{fill:#203A70;} .st5{fill:#FFFFFF;} .st6{fill:#2683C6;} .st7{fill:#529ED7;} .st8{fill:#8DC0E8;} .st9{clip-path:url(#SVGID_2_);fill:url(#SVGID_3_);} .st10{fill:none;stroke:#74BE45;stroke-width:1.2818;stroke-linecap:round;stroke-linejoin:round;stroke-miterlimit:10;} .st11{clip-path:url(#SVGID_5_);fill:url(#SVGID_6_);} .st12{fill:none;stroke:#8CC541;stroke-width:1.2818;stroke-linecap:round;stroke-linejoin:round;stroke-miterlimit:10;} .st13{fill:none;stroke:#FFFFFF;stroke-width:1.2818;stroke-linecap:round;stroke-linejoin:round;stroke-miterlimit:10;} .st14{fill:#231F20;} .st15{fill:#066434;} .st16{fill:none;stroke:#066434;stroke-width:1.14;stroke-linecap:round;stroke-linejoin:round;} .st17{fill:#F9B919;} .st18{fill:#F48220;} .st19{fill:url(#XMLID_4_);} .st20{fill:url(#XMLID_5_);} .st21{opacity:0.65;fill:url(#XMLID_6_);enable-background:new ;} </style> <g id="XMLID_41_"> </g> <g> <g> <polygon class="st0" points="21.8,26.9 24.9,8.6 29.9,8.6 26.8,26.9 "></polygon> <path class="st0" d="M44.9,9.1c-1-0.4-2.6-0.7-4.5-0.7c-4.9,0-8.4,2.5-8.4,6.1c0,2.6,2.5,4.1,4.3,4.9c2,0.9,2.6,1.5,2.6,2.2 c0,1.2-1.6,1.9-3,1.9c-2,0-3.1-0.2-4.7-1l-0.6-0.2l-0.7,4.1c1.1,0.5,3.3,1,5.6,1c5.3,0,8.7-2.5,8.7-6.3c0-2.1-1.4-3.7-4.2-4.9 c-1.7-0.9-2.8-1.4-2.8-2.2c0-0.7,0.9-1.6,2.8-1.6c1.6,0,2.8,0.4,3.7,0.7l0.5,0.2L44.9,9.1"></path> <path class="st0" d="M57.8,8.6H54c-1.2,0-2.1,0.4-2.6,1.5L44,26.9h5.3c0,0,0.9-2.2,1.1-2.7c0.6,0,5.7,0,6.4,0 c0.1,0.6,0.6,2.7,0.6,2.7h4.5L57.8,8.6 M51.6,20.5c0.4-1.1,2-5.2,2-5.2s0.4-1.1,0.6-1.7l0.4,1.6c0,0,1,4.3,1.1,5.3H51.6L51.6,20.5 z"></path> <path class="st0" d="M17.6,8.6l-4.9,12.5l-0.6-2.6c-0.9-3-3.7-6.1-6.9-7.7l4.5,16.1H15l7.9-18.3L17.6,8.6"></path> <path class="st1" d="M8.2,8.6h-8L0,9c6.3,1.5,10.4,5.2,12.1,9.6l-1.7-8.5C10.1,9,9.3,8.6,8.2,8.6"></path> </g> </g> <g> <g> <g> <g> <path class="st2" d="M100.4,3.5c8,0,14.5,6.5,14.5,14.5s-6.5,14.5-14.5,14.5S85.9,26,85.9,18S92.4,3.5,100.4,3.5z"></path> <g> <path class="st3" d="M119.8,3.5c-3.8,0-7.1,1.5-9.7,3.8c-0.5,0.5-1,0.9-1.5,1.6h2.9c0.4,0.5,0.7,1,1.1,1.6h-5.1 c-0.3,0.5-0.6,1-0.8,1.6h6.8c0.2,0.5,0.4,1,0.6,1.6H106c-0.2,0.5-0.3,1-0.4,1.6h8.9c0.2,0.9,0.3,2,0.3,3c0,1.6-0.3,3.1-0.7,4.6 h-8c0.2,0.5,0.4,1,0.6,1.6h6.8c-0.2,0.5-0.5,1-0.8,1.6h-5.1c0.3,0.5,0.7,1,1.1,1.6h2.9c-0.4,0.5-0.9,1-1.5,1.6 c2.6,2.3,5.9,3.8,9.7,3.8c7.9,0,14.5-6.5,14.5-14.5C134.2,10.1,127.7,3.5,119.8,3.5z"></path> </g> </g> <path class="st3" d="M132.3,26.1c0-0.2,0.2-0.4,0.4-0.4c0.2,0,0.4,0.2,0.4,0.4c0,0.2-0.2,0.4-0.4,0.4 C132.5,26.6,132.3,26.4,132.3,26.1z M132.7,26.5c0.2,0,0.3-0.2,0.3-0.3c0-0.2-0.2-0.3-0.3-0.3c-0.2,0-0.3,0.2-0.3,0.3 S132.5,26.5,132.7,26.5z M132.7,26.3L132.7,26.3l-0.1-0.4h0.2h0.1V26c0,0,0,0.1-0.1,0.1l0.1,0.2L132.7,26.3v-0.2h-0.1L132.7,26.3 L132.7,26.3z M132.7,26.1L132.7,26.1C132.8,26.1,132.8,26.1,132.7,26.1L132.7,26.1L132.7,26.1C132.8,26.1,132.8,26.1,132.7,26.1 L132.7,26.1L132.7,26.1z"></path> </g> <g> <g> <path class="st4" d="M96.9,19.6c-0.2,0-0.2,0-0.3,0c-0.9,0-1.4,0.3-1.4,0.9c0,0.4,0.2,0.6,0.5,0.6 C96.5,21.1,96.9,20.5,96.9,19.6z M98.1,22.3c-0.2,0-1.3,0-1.3,0v-0.6c-0.4,0.5-0.9,0.7-1.7,0.7s-1.5-0.6-1.5-1.7 c0-1.5,1-2.3,2.7-2.3c0.2,0,0.4,0,0.6,0c0-0.2,0.1-0.3,0.1-0.4c0-0.4-0.3-0.5-1-0.5s-1.4,0.2-1.7,0.3c0-0.1,0.2-1.4,0.2-1.4 c0.7-0.2,1.3-0.3,1.9-0.3c1.4,0,2.1,0.6,2.1,1.8c0,0.3,0,0.7-0.1,1.1C98.4,20,98.2,21.8,98.1,22.3z"></path> <polygon class="st4" points="93.1,22.3 91.5,22.3 92.5,16.7 90.5,22.3 89.3,22.3 89.2,16.7 88.3,22.3 86.8,22.3 88.1,14.9 90.3,14.9 90.5,19.1 91.8,14.9 94.3,14.9 "></polygon> <path class="st4" d="M121.7,19.6c-0.2,0-0.2,0-0.3,0c-0.9,0-1.4,0.3-1.4,0.9c0,0.4,0.2,0.6,0.5,0.6 C121.2,21.1,121.7,20.5,121.7,19.6z M122.8,22.3c-0.2,0-1.3,0-1.3,0v-0.6c-0.4,0.5-0.9,0.7-1.7,0.7s-1.5-0.6-1.5-1.7 c0-1.5,1-2.3,2.7-2.3c0.2,0,0.4,0,0.6,0c0-0.2,0.1-0.3,0.1-0.4c0-0.4-0.3-0.5-1-0.5s-1.4,0.2-1.7,0.3c0-0.1,0.2-1.4,0.2-1.4 c0.7-0.2,1.3-0.3,1.9-0.3c1.4,0,2.1,0.6,2.1,1.8c0,0.3,0,0.7-0.1,1.1C123.1,20,122.9,21.8,122.8,22.3z"></path> <path class="st4" d="M105.1,22.2c-0.4,0.1-0.7,0.2-1.1,0.2c-0.8,0-1.3-0.4-1.3-1.4c0-0.3,0.1-0.9,0.2-1.6 c0.1-0.5,0.7-4.1,0.7-4.1h1.6l-0.2,0.8h0.9l-0.2,1.5h-0.9c-0.2,1.1-0.4,2.5-0.4,2.7c0,0.3,0.2,0.4,0.5,0.4c0.2,0,0.3,0,0.4-0.1 L105.1,22.2z"></path> <path class="st4" d="M109.9,22.1c-0.5,0.2-1,0.2-1.6,0.2c-1.8,0-2.6-0.9-2.6-2.6c0-2.1,1.1-3.5,2.7-3.5c1.2,0,2.1,0.8,2.1,2.2 c0,0.4-0.1,0.8-0.2,1.5h-3.1c-0.1,0.8,0.4,1.3,1.4,1.3c0.5,0,1-0.1,1.7-0.4L109.9,22.1z M109,18.6c0-0.1,0.2-1-0.7-1 c-0.5,0-0.8,0.4-1,1H109z"></path> <path class="st4" d="M99,18.3c0,0.7,0.4,1.3,1.1,1.7c0.6,0.3,0.7,0.4,0.7,0.6c0,0.4-0.3,0.5-0.9,0.5c-0.4,0-0.9-0.1-1.4-0.2 l-0.2,1.4c0.3,0.1,0.6,0.1,1.7,0.2c1.7,0,2.4-0.6,2.4-2c0-0.8-0.3-1.3-1.1-1.7c-0.6-0.3-0.7-0.4-0.7-0.6c0-0.3,0.3-0.5,0.7-0.5 c0.3,0,0.7,0,1.1,0.1l0.2-1.4c-0.4-0.1-1-0.1-1.4-0.1C99.7,16.2,99,17.1,99,18.3z"></path> <path class="st4" d="M117.5,16.4c0.4,0,0.8,0.1,1.4,0.4l0.2-1.6c-0.2-0.1-1-0.6-1.8-0.6c-1,0-2,0.5-2.6,1.4 c-0.9-0.3-1.3,0.3-1.8,0.9l-0.4,0.1c0-0.2,0.1-0.4,0-0.6H111c-0.2,1.9-0.5,3.8-0.8,5.5l-0.1,0.4h1.6c0.3-1.7,0.4-2.8,0.5-3.5 l0.6-0.3c0.1-0.3,0.3-0.4,0.9-0.4c-0.1,0.4-0.1,0.8-0.1,1.3c0,2,1,3.1,2.7,3.1c0.4,0,0.8-0.1,1.4-0.2l0.3-1.7 c-0.5,0.2-0.9,0.4-1.4,0.4c-0.9,0-1.5-0.6-1.5-1.8C115.5,17.5,116.3,16.4,117.5,16.4z"></path> <path class="st4" d="M130.7,14.9l-0.3,2.1c-0.4-0.5-0.9-0.9-1.5-0.9c-0.8,0-1.5,0.6-2,1.5c-0.6-0.1-1.4-0.4-1.4-0.4l0,0 c0.1-0.5,0.1-0.8,0.1-0.9h-1.5c-0.2,1.9-0.5,3.8-0.8,5.5l-0.1,0.4h1.6c0.2-1.4,0.4-2.5,0.5-3.4c0.5-0.5,0.8-0.9,1.4-0.8 c-0.2,0.6-0.4,1.2-0.4,2c0,1.5,0.7,2.5,1.9,2.5c0.6,0,1-0.2,1.5-0.6l-0.1,0.5h1.5l1.1-7.3C132.2,14.9,130.7,14.9,130.7,14.9z M128.9,20.9c-0.5,0-0.8-0.4-0.8-1.1c0-1.1,0.5-2,1.3-2c0.5,0,0.8,0.4,0.8,1.1C130.1,20,129.6,20.9,128.9,20.9z"></path> </g> <g> <polygon class="st5" points="93.6,21.8 92,21.8 92.9,16.2 90.9,21.8 89.9,21.8 89.6,16.3 88.7,21.8 87.2,21.8 88.5,14.5 90.8,14.5 90.8,19.1 92.4,14.5 94.7,14.5 "></polygon> <path class="st5" d="M97.5,19.2c-0.2,0-0.2,0-0.3,0c-0.9,0-1.4,0.3-1.4,0.9c0,0.4,0.2,0.6,0.5,0.6C96.9,20.7,97.4,20,97.5,19.2z M98.6,21.8c-0.2,0-1.3,0-1.3,0v-0.6c-0.4,0.5-0.9,0.7-1.7,0.7s-1.5-0.6-1.5-1.7c0-1.5,1-2.3,2.7-2.3c0.2,0,0.4,0,0.6,0 c0-0.2,0.1-0.3,0.1-0.4c0-0.4-0.3-0.5-1-0.5s-1.4,0.2-1.7,0.3c0-0.1,0.2-1.4,0.2-1.4c0.7-0.2,1.3-0.3,1.9-0.3 c1.4,0,2.1,0.6,2.1,1.8c0,0.3,0,0.7-0.1,1.1C98.9,19.5,98.6,21.4,98.6,21.8z"></path> <path class="st5" d="M119.6,14.7l-0.2,1.6c-0.5-0.3-0.9-0.4-1.4-0.4c-1.1,0-2,1.1-2,2.7c0,1.1,0.5,1.8,1.5,1.8 c0.4,0,0.8-0.1,1.4-0.4l-0.3,1.7c-0.6,0.2-0.9,0.2-1.4,0.2c-1.7,0-2.7-1.2-2.7-3.1c0-2.6,1.5-4.5,3.5-4.5 C118.5,14.3,119.4,14.6,119.6,14.7z"></path> <path class="st5" d="M122.2,19.2c-0.2,0-0.2,0-0.3,0c-0.9,0-1.4,0.3-1.4,0.9c0,0.4,0.2,0.6,0.5,0.6 C121.7,20.7,122.1,20,122.2,19.2z M123.3,21.8c-0.2,0-1.3,0-1.3,0v-0.6c-0.4,0.5-0.9,0.7-1.7,0.7s-1.5-0.6-1.5-1.7 c0-1.5,1-2.3,2.7-2.3c0.2,0,0.4,0,0.6,0c0-0.2,0.1-0.3,0.1-0.4c0-0.4-0.3-0.5-1-0.5s-1.4,0.2-1.7,0.3c0-0.1,0.2-1.4,0.2-1.4 c0.7-0.2,1.2-0.3,1.9-0.3c1.4,0,2.1,0.6,2.1,1.8c0,0.3,0,0.7-0.1,1.1C123.6,19.5,123.3,21.4,123.3,21.8z"></path> <path class="st5" d="M105.5,21.8c-0.4,0.1-0.7,0.2-1.1,0.2c-0.8,0-1.3-0.4-1.3-1.4c0-0.3,0.1-0.9,0.2-1.6 c0.1-0.5,0.7-4.1,0.7-4.1h1.6l-0.2,0.9h0.8l-0.2,1.4h-0.8c-0.2,1.1-0.4,2.5-0.4,2.7c0,0.3,0.2,0.4,0.5,0.4c0.2,0,0.3,0,0.4-0.1 L105.5,21.8z"></path> <path class="st5" d="M110.3,21.7c-0.5,0.2-1,0.2-1.6,0.2c-1.8,0-2.6-0.9-2.6-2.6c0-2.1,1.1-3.5,2.7-3.5c1.3,0,2.1,0.8,2.1,2.2 c0,0.4-0.1,0.8-0.2,1.5h-3.1c-0.1,0.8,0.4,1.3,1.4,1.3c0.5,0,1-0.1,1.7-0.4L110.3,21.7z M109.5,18.1c0-0.1,0.2-1-0.7-1 c-0.5,0-0.8,0.4-1,1H109.5z"></path> <path class="st5" d="M99.5,17.7c0,0.7,0.4,1.3,1.1,1.7c0.6,0.3,0.7,0.4,0.7,0.6c0,0.4-0.3,0.5-0.9,0.5c-0.4,0-0.9-0.1-1.4-0.2 l-0.2,1.4c0.3,0.1,0.6,0.1,1.7,0.2c1.7,0,2.4-0.6,2.4-2c0-0.8-0.3-1.2-1.1-1.7c-0.6-0.3-0.7-0.4-0.7-0.6c0-0.3,0.2-0.5,0.7-0.5 c0.3,0,0.7,0,1.1,0.1l0.2-1.4c-0.4-0.1-1-0.1-1.4-0.1C100.1,15.7,99.5,16.7,99.5,17.7z"></path> <path class="st5" d="M131.6,21.8h-1.5l0.1-0.5c-0.4,0.4-0.8,0.6-1.5,0.6c-1.1,0-1.9-0.9-1.9-2.5c0-2,1.1-3.7,2.5-3.7 c0.6,0,1,0.2,1.5,0.8l0.3-2.1h1.6L131.6,21.8z M129.3,20.4c0.7,0,1.2-0.8,1.2-2c0-0.7-0.3-1.1-0.8-1.1c-0.7,0-1.3,0.8-1.3,2 C128.4,20,128.8,20.4,129.3,20.4z"></path> <path class="st5" d="M124.7,15.9c-0.2,1.9-0.5,3.8-0.8,5.5l-0.1,0.4h1.6c0.5-3.7,0.7-4.4,1.6-4.3c0.1-0.7,0.4-1.4,0.6-1.8 c-0.6-0.1-1,0.2-1.5,0.9c0-0.3,0.1-0.6,0.1-0.9L124.7,15.9L124.7,15.9z"></path> <path class="st5" d="M111.8,15.9c-0.2,1.9-0.5,3.8-0.8,5.5l-0.1,0.4h1.6c0.5-3.7,0.7-4.4,1.6-4.3c0.1-0.7,0.4-1.4,0.6-1.8 c-0.6-0.1-1,0.2-1.5,0.9c0-0.3,0.1-0.6,0.1-0.9L111.8,15.9L111.8,15.9z"></path> <g> <path class="st5" d="M132.3,21.4c0-0.2,0.2-0.4,0.4-0.4c0.2,0,0.4,0.2,0.4,0.4c0,0.2-0.2,0.4-0.4,0.4 C132.5,21.8,132.3,21.6,132.3,21.4z M132.7,21.7c0.2,0,0.3-0.2,0.3-0.3c0-0.2-0.2-0.3-0.3-0.3c-0.2,0-0.3,0.2-0.3,0.3 C132.4,21.6,132.5,21.7,132.7,21.7z M132.7,21.6L132.7,21.6l-0.1-0.4h0.2h0.1l0.1,0.1c0,0,0,0.1-0.1,0.1l0.1,0.2h-0.1l-0.1-0.2 h-0.1L132.7,21.6L132.7,21.6z M132.7,21.4L132.7,21.4C132.8,21.4,132.8,21.4,132.7,21.4L132.7,21.4L132.7,21.4 C132.7,21.3,132.7,21.3,132.7,21.4L132.7,21.4L132.7,21.4z"></path> </g> </g> </g> </g> </g> <g> <path class="st6" d="M291.8,29.7c0,2.4-1.9,4.4-4.4,4.4h-48.1c-2.4,0-4.4-1.9-4.4-4.4V6.3c0-2.4,1.9-4.4,4.4-4.4h48.1 c2.4,0,4.4,1.9,4.4,4.4V29.7z"></path> <path class="st5" d="M241.6,7.5h-1.8v6.2h1.5v-2.1h0.4c1.3,0,2.2-0.8,2.2-2.1C244.1,8.1,243.3,7.5,241.6,7.5 M242.5,9.5 c0,0.5-0.3,0.8-0.8,0.8h-0.3V8.8h0.3C242.3,8.8,242.5,9,242.5,9.5"></path> <path class="st5" d="M247.3,9L247.3,9c-0.3,0-0.4-0.1-0.5-0.1c-0.5,0-0.8,0.3-1,0.6V9h-1.4v4.6h1.5v-1.9c0-0.8,0.4-1.3,0.9-1.3 c0.1,0,0.3,0,0.4,0h0.1V9z"></path> <path class="st5" d="M249.4,8.9c-1.3,0-2.2,0.9-2.2,2.4c0,1.4,0.9,2.4,2.3,2.4c0.5,0,1-0.1,1.4-0.3l0,0v-1.3l-0.1,0.1 c-0.4,0.3-0.9,0.4-1.2,0.4c-0.6,0-0.9-0.3-1-0.6h2.7v-0.4C251.3,9.8,250.7,8.9,249.4,8.9 M250,10.8h-1.3c0-0.3,0.1-0.8,0.6-0.8 C249.9,10,250,10.4,250,10.8"></path> <path class="st5" d="M254.5,8.9c-0.6,0-1,0.3-1.4,0.6V9h-1.4v6.4h1.5v-2.2c0.3,0.4,0.6,0.5,1.2,0.5c1.2,0,1.8-1,1.8-2.4 C256.2,10,255.5,8.9,254.5,8.9 M254.6,11.2c0,0.6-0.3,1.2-0.8,1.2c-0.4,0-0.8-0.5-0.8-1c0-0.6,0.3-1,0.8-1 C254.4,10.3,254.6,10.8,254.6,11.2"></path> <path class="st5" d="M260.4,12.5v-1.7c0-1.3-0.6-1.9-1.9-1.9c-0.6,0-1.2,0.1-1.5,0.3l0,0v1.3l0.1-0.1c0.4-0.3,0.8-0.3,1.2-0.3 c0.5,0,0.8,0.1,0.8,0.6c-0.1,0-0.4,0-0.5,0c-1.3,0-2.1,0.5-2.1,1.5c0,1.2,0.8,1.5,1.5,1.5c0.5,0,0.9-0.3,1.2-0.6v0.1 c0,0.1,0,0.3,0,0.3v0.1h1.4v-0.1C260.4,13.3,260.4,12.9,260.4,12.5 M259,11.6c0,0.4-0.3,0.9-0.8,0.9c-0.3,0-0.5-0.1-0.5-0.4 c0-0.4,0.4-0.5,0.8-0.5C258.6,11.6,258.8,11.6,259,11.6C258.9,11.6,259,11.6,259,11.6"></path> <rect x="261.1" y="7.2" class="st5" width="1.5" height="1.3"></rect> <rect x="261.1" y="9" class="st5" width="1.5" height="4.6"></rect> <path class="st5" d="M266.1,9.4c-0.3-0.4-0.8-0.5-1.3-0.5c-1.2,0-1.8,1.2-1.8,2.3c0,1.5,0.8,2.4,1.8,2.4c0.5,0,1-0.3,1.3-0.6v0.5 h1.4V7.1H266v2.3H266.1L266.1,9.4z M266.1,11.3c0,0.6-0.4,1-0.8,1s-0.8-0.4-0.8-1.2c0-0.5,0.3-1,0.8-1 C265.8,10.3,266.1,10.7,266.1,11.3"></path> <path class="st5" d="M274.6,12.1c-0.3,0.1-0.8,0.3-1.3,0.3c-1,0-1.7-0.6-1.7-1.8c0-1,0.6-1.8,1.5-1.8c0.5,0,0.9,0.1,1.3,0.4 l0.1,0.1l0.1-1.4V7.7h-0.1c-0.4-0.1-1-0.3-1.5-0.3c-1.9,0-3.1,1.2-3.1,3.2c0,2.3,1.7,3.1,3.1,3.1c0.6,0,1.2-0.1,1.5-0.3h0.1V12.1 L274.6,12.1z"></path> <path class="st5" d="M278.8,12.5v-1.7c0-1.3-0.6-1.9-1.9-1.9c-0.6,0-1.2,0.1-1.5,0.3l0,0v1.3l0.1-0.1c0.4-0.3,0.8-0.3,1.2-0.3 c0.5,0,0.8,0.1,0.8,0.6c-0.1,0-0.4,0-0.5,0c-1.3,0-2.1,0.5-2.1,1.5c0,1.2,0.8,1.5,1.5,1.5c0.5,0,0.9-0.3,1.2-0.6v0.1 c0,0.1,0,0.3,0,0.3v0.1h1.4v-0.1C279,13.3,278.8,12.9,278.8,12.5 M277.4,11.6c0,0.4-0.3,0.9-0.8,0.9c-0.3,0-0.5-0.1-0.5-0.4 c0-0.4,0.4-0.5,0.8-0.5C277.2,11.6,277.3,11.6,277.4,11.6L277.4,11.6"></path> <path class="st5" d="M282.4,9L282.4,9c-0.3,0-0.4-0.1-0.5-0.1c-0.5,0-0.8,0.3-1,0.6V9h-1.4v4.6h1.5v-1.9c0-0.8,0.4-1.3,0.9-1.3 c0.1,0,0.3,0,0.4,0h0.1V9z"></path> <path class="st5" d="M285.3,7.1v2.3C285,9,284.5,8.9,284,8.9c-1.2,0-1.8,1.2-1.8,2.3c0,1.5,0.8,2.4,1.8,2.4c0.5,0,1-0.3,1.3-0.6 v0.5h1.4V7.1H285.3L285.3,7.1z M285.3,11.3c0,0.6-0.3,1-0.8,1c-0.4,0-0.8-0.4-0.8-1.2c0-0.5,0.3-1,0.8-1 C285,10.3,285.3,10.7,285.3,11.3"></path> <path class="st7" d="M255,28.6v1.7h-1.7v-1.5c-1.3,0-2.1-0.3-2.6-0.6v-2.8c1,0.8,1.9,1.2,2.8,1.2c0.5,0,0.8-0.3,0.8-0.8 c0-0.3-0.1-0.4-0.3-0.5c-0.1-0.1-0.5-0.4-1.2-0.6c-1.5-0.6-2.2-1.7-2.2-3.1c0-0.8,0.3-1.5,0.8-2.1c0.5-0.5,1.2-0.9,2.1-1v-1.4h1.7 v1.4c0.8,0,1.4,0.1,1.9,0.4v2.7c-0.8-0.5-1.7-0.8-2.4-0.8c-0.3,0-0.5,0.1-0.6,0.3c-0.1,0.1-0.3,0.3-0.3,0.5c0,0.3,0.1,0.5,0.4,0.6 s0.5,0.4,0.9,0.5c0.9,0.4,1.5,0.9,2.1,1.4c0.4,0.5,0.6,1.2,0.6,1.8c0,0.6-0.3,1.3-0.6,1.8C256.4,28.1,255.8,28.4,255,28.6"></path> <path class="st5" d="M264.3,28.6v1.7h-1.7v-1.5c-1.3,0-2.1-0.3-2.6-0.6v-2.8c1,0.8,1.9,1.2,2.8,1.2c0.5,0,0.8-0.3,0.8-0.8 c0-0.3-0.1-0.4-0.3-0.5c-0.1-0.1-0.5-0.4-1.2-0.6c-1.5-0.6-2.2-1.7-2.2-3.1c0-0.8,0.3-1.5,0.8-2.1c0.5-0.5,1.2-0.9,2.1-1v-1.4h1.7 v1.4c0.8,0,1.4,0.1,1.9,0.4v2.7c-0.8-0.5-1.7-0.8-2.4-0.8c-0.3,0-0.5,0.1-0.6,0.3c-0.1,0.1-0.3,0.3-0.3,0.5c0,0.3,0.1,0.5,0.4,0.6 s0.5,0.4,0.9,0.5c0.9,0.4,1.5,0.9,2.1,1.4c0.4,0.5,0.6,1.2,0.6,1.8c0,0.6-0.3,1.3-0.6,1.8C265.6,28.1,265.1,28.4,264.3,28.6"></path> <path class="st8" d="M273.4,28.6v1.7h-1.7v-1.5c-1.3,0-2.1-0.3-2.6-0.6v-2.8c1,0.8,1.9,1.2,2.8,1.2c0.5,0,0.8-0.3,0.8-0.8 c0-0.3-0.1-0.4-0.3-0.5c-0.1-0.1-0.5-0.4-1.2-0.6c-1.5-0.6-2.2-1.7-2.2-3.1c0-0.8,0.3-1.5,0.8-2.1c0.5-0.5,1.2-0.9,2.1-1v-1.4h1.7 v1.4c0.8,0,1.4,0.1,1.9,0.4v2.7c-0.8-0.5-1.7-0.8-2.4-0.8c-0.3,0-0.5,0.1-0.6,0.3c-0.1,0.1-0.3,0.3-0.3,0.5c0,0.3,0.1,0.5,0.4,0.6 s0.5,0.4,0.9,0.5c0.9,0.4,1.5,0.9,2.1,1.4c0.4,0.5,0.6,1.2,0.6,1.8c0,0.6-0.3,1.3-0.6,1.8C274.8,28.1,274.2,28.4,273.4,28.6"></path> </g> <g> <g> <g> <g> <g> <g> <g> <g> <g> <g> <defs> <path id="SVGID_1_" d="M373.1,13.3L328.9,2.8l10.8,25l31.9-6.3c2.3,2.3-3.5,13.5-3.1,13.3c19-13.4,21.1-19.2,21.1-19.2 C385,8.7,373.4,1.3,373.4,1.3S376,11.6,373.1,13.3"></path> </defs> <clipPath id="SVGID_2_"> <use xlink:href="#SVGID_1_" style="overflow:visible;"></use> </clipPath> <linearGradient id="SVGID_3_" gradientUnits="userSpaceOnUse" x1="-226.677" y1="581.5709" x2="-223.004" y2="581.5709" gradientTransform="matrix(0 -9.1074 -9.1074 0 5655.8486 -2029.7179)"> <stop offset="0" style="stop-color:#3BB34A"></stop> <stop offset="0.5031" style="stop-color:#8CC541"></stop> <stop offset="0.5276" style="stop-color:#87C670"></stop> <stop offset="0.9632" style="stop-color:#E4F0D1"></stop> <stop offset="1" style="stop-color:#E4F0D1"></stop> </linearGradient> <rect x="328.9" y="1.3" class="st9" width="60.7" height="33.7"></rect> </g> </g> </g> </g> </g> </g> </g> </g> </g> <g> <path class="st10" d="M328.9,2.8l10.8,25l31.9-6.3c2.3,2.3-3.5,13.5-3.2,13.3c19-13.4,21.1-19.2,21.1-19.2 C385,8.7,373.4,1.3,373.4,1.3s2.6,10.3-0.3,12L328.9,2.8z"></path> </g> <g> <g> <g> <g> <g> <g> <g> <g> <g> <defs> <path id="SVGID_4_" d="M357.4,13.3l-38.7-9.7c5.9,16.6-0.8,23.8-0.8,23.8c10.6,0,14.4-2.7,14.4-2.7l5.7,3.5h8.1 c5.1-0.5,9.9-6.6,9.9-6.6c2.3,2.3-0.8,9.6-0.5,9.5c19-13.4,18.4-15.4,18.4-15.4c-4.5-7.1-16.1-14.4-16.1-14.4 S360.3,11.6,357.4,13.3"></path> </defs> <clipPath id="SVGID_5_"> <use xlink:href="#SVGID_4_" style="overflow:visible;"></use> </clipPath> <linearGradient id="SVGID_6_" gradientUnits="userSpaceOnUse" x1="-257.231" y1="563.925" x2="-253.5582" y2="563.925" gradientTransform="matrix(0 -8.0863 -8.0863 0 4906.2666 -2049.0271)"> <stop offset="0" style="stop-color:#63BA46"></stop> <stop offset="0.4908" style="stop-color:#1A8943"></stop> <stop offset="0.5215" style="stop-color:#DFEBC0"></stop> <stop offset="0.6814" style="stop-color:#CCCE45"></stop> <stop offset="0.7117" style="stop-color:#C8C82F"></stop> <stop offset="1" style="stop-color:#C8C82F"></stop> </linearGradient> <rect x="317.9" y="1.3" class="st11" width="56.6" height="29.8"></rect> </g> </g> </g> </g> </g> </g> </g> </g> </g> <path class="st12" d="M318.6,3.6l38.7,9.6c2.8-1.7,0.3-12,0.3-12s11.7,7.3,16.2,14.3c0,0,0.6,2.1-18.4,15.4 c-0.3,0.3,2.8-7.2,0.5-9.5c0,0-4.8,6-9.9,6.6h-8.1l-5.7-3.5c0,0-3.9,2.7-14.4,2.7C317.9,27.3,324.6,20.2,318.6,3.6z"></path> <path class="st5" d="M328.9,26.8h2.2c0.4,0,0.8,0,0.9,0c0.3,0,0.4,0.1,0.5,0.3c0.1,0.1,0.3,0.3,0.4,0.5c0.1,0.1,0.1,0.4,0.1,0.6 c0,0.3,0,0.5-0.3,0.6c-0.1,0.3-0.4,0.4-0.5,0.5c0.4,0.1,0.6,0.3,0.8,0.5c0.1,0.3,0.3,0.5,0.3,0.8s0,0.5-0.1,0.8s-0.3,0.4-0.5,0.5 c-0.3,0.1-0.4,0.3-0.8,0.3c-0.1,0-0.6,0-1.3,0h-1.8L328.9,26.8L328.9,26.8z M330.1,27.7V29h0.8c0.4,0,0.6,0,0.8,0 c0.1,0,0.4-0.1,0.4-0.1c0.1-0.1,0.1-0.3,0.1-0.4s0-0.3-0.1-0.4s-0.3-0.1-0.4-0.1s-0.4,0-0.9,0h-0.7V27.7L330.1,27.7L330.1,27.7z M330.1,29.9v1.4h1c0.4,0,0.6,0,0.8,0c0.1,0,0.3-0.1,0.4-0.3c0.1-0.1,0.1-0.3,0.1-0.5c0-0.1,0-0.3-0.1-0.4s-0.1-0.3-0.4-0.3 c-0.1,0-0.5-0.1-0.9-0.1h-0.9V29.9L330.1,29.9z"></path> <path class="st13" d="M328.9,26.8h2.2c0.4,0,0.8,0,0.9,0c0.3,0,0.4,0.1,0.5,0.3c0.1,0.1,0.3,0.3,0.4,0.5c0.1,0.1,0.1,0.4,0.1,0.6 c0,0.3,0,0.5-0.3,0.6c-0.1,0.3-0.4,0.4-0.5,0.5c0.4,0.1,0.6,0.3,0.8,0.5c0.1,0.3,0.3,0.5,0.3,0.8s0,0.5-0.1,0.8s-0.3,0.4-0.5,0.5 c-0.3,0.1-0.4,0.3-0.8,0.3c-0.1,0-0.6,0-1.3,0h-1.8L328.9,26.8L328.9,26.8z M330.1,27.7V29h0.8c0.4,0,0.6,0,0.8,0 c0.1,0,0.4-0.1,0.4-0.1c0.1-0.1,0.1-0.3,0.1-0.4s0-0.3-0.1-0.4s-0.3-0.1-0.4-0.1s-0.4,0-0.9,0h-0.7V27.7L330.1,27.7L330.1,27.7z M330.1,29.9v1.4h1c0.4,0,0.6,0,0.8,0c0.1,0,0.3-0.1,0.4-0.3c0.1-0.1,0.1-0.3,0.1-0.5c0-0.1,0-0.3-0.1-0.4s-0.1-0.3-0.4-0.3 c-0.1,0-0.5-0.1-0.9-0.1h-0.9V29.9L330.1,29.9z"></path> <path class="st5" d="M339.2,32.2h-1.1l-0.5-1.3h-2.2l-0.4,1.3h-1.2l2.1-5.4h1.2L339.2,32.2z M337.3,30.1l-0.8-2.1l-0.8,2.1H337.3z"></path> <path class="st13" d="M339.2,32.2h-1.1l-0.5-1.3h-2.2l-0.4,1.3h-1.2l2.1-5.4h1.2L339.2,32.2z M337.3,30.1l-0.8-2.1l-0.8,2.1H337.3z "></path> <polygon class="st5" points="339.9,32.2 339.9,26.8 340.9,26.8 343.1,30.4 343.1,26.8 344.1,26.8 344.1,32.2 343,32.2 340.9,28.7 340.9,32.2 "></polygon> <polygon class="st13" points="339.9,32.2 339.9,26.8 340.9,26.8 343.1,30.4 343.1,26.8 344.1,26.8 344.1,32.2 343,32.2 340.9,28.7 340.9,32.2 "></polygon> <polygon class="st5" points="345.3,32.2 345.3,26.8 346.3,26.8 346.3,29.2 348.6,26.8 350,26.8 348,29 350.2,32.2 348.7,32.2 347.2,29.7 346.3,30.6 346.3,32.2 "></polygon> <polygon class="st13" points="345.3,32.2 345.3,26.8 346.3,26.8 346.3,29.2 348.6,26.8 350,26.8 348,29 350.2,32.2 348.7,32.2 347.2,29.7 346.3,30.6 346.3,32.2 "></polygon> <polygon class="st5" points="354,32.2 354,27.8 352.3,27.8 352.3,26.8 356.7,26.8 356.7,27.8 355.1,27.8 355.1,32.2 "></polygon> <polygon class="st13" points="354,32.2 354,27.8 352.3,27.8 352.3,26.8 356.7,26.8 356.7,27.8 355.1,27.8 355.1,32.2 "></polygon> <path class="st5" d="M357.4,32.2v-5.4h2.3c0.5,0,1,0,1.3,0.1s0.5,0.3,0.6,0.5c0.1,0.3,0.3,0.5,0.3,0.9s-0.1,0.8-0.4,1 c-0.3,0.3-0.6,0.4-1,0.5c0.3,0.1,0.4,0.3,0.6,0.4c0.1,0.1,0.4,0.5,0.6,0.9l0.5,1h-1.3l-0.8-1.2c-0.3-0.4-0.5-0.6-0.5-0.8 c-0.1-0.1-0.3-0.1-0.4-0.3c-0.1,0-0.3,0-0.5,0h-0.3V32h-1V32.2L357.4,32.2z M358.5,29.1h0.8c0.5,0,0.9,0,1-0.1 c0.1,0,0.3-0.1,0.3-0.3c0.1-0.1,0.1-0.3,0.1-0.4s0-0.4-0.1-0.4c-0.1-0.1-0.3-0.1-0.4-0.3c-0.1,0-0.4,0-0.8,0h-0.9V29.1L358.5,29.1z "></path> <path class="st13" d="M357.4,32.2v-5.4h2.3c0.5,0,1,0,1.3,0.1s0.5,0.3,0.6,0.5c0.1,0.3,0.3,0.5,0.3,0.9s-0.1,0.8-0.4,1 c-0.3,0.3-0.6,0.4-1,0.5c0.3,0.1,0.4,0.3,0.6,0.4c0.1,0.1,0.4,0.5,0.6,0.9l0.5,1h-1.3l-0.8-1.2c-0.3-0.4-0.5-0.6-0.5-0.8 c-0.1-0.1-0.3-0.1-0.4-0.3c-0.1,0-0.3,0-0.5,0h-0.3V32h-1V32.2L357.4,32.2z M358.5,29.1h0.8c0.5,0,0.9,0,1-0.1 c0.1,0,0.3-0.1,0.3-0.3c0.1-0.1,0.1-0.3,0.1-0.4s0-0.4-0.1-0.4c-0.1-0.1-0.3-0.1-0.4-0.3c-0.1,0-0.4,0-0.8,0h-0.9V29.1L358.5,29.1z "></path> <path class="st5" d="M367.7,32.2h-1.2l-0.5-1.3h-2.2l-0.4,1.3h-1.2l2.1-5.4h1.2L367.7,32.2z M365.7,30.1l-0.8-2.1l-0.8,2.1H365.7z"></path> <path class="st13" d="M367.7,32.2h-1.2l-0.5-1.3h-2.2l-0.4,1.3h-1.2l2.1-5.4h1.2L367.7,32.2z M365.7,30.1l-0.8-2.1l-0.8,2.1H365.7z "></path> <polygon class="st5" points="368.3,32.2 368.3,26.8 369.3,26.8 371.5,30.4 371.5,26.8 372.6,26.8 372.6,32.2 371.5,32.2 369.3,28.7 369.3,32.2 "></polygon> <polygon class="st13" points="368.3,32.2 368.3,26.8 369.3,26.8 371.5,30.4 371.5,26.8 372.6,26.8 372.6,32.2 371.5,32.2 369.3,28.7 369.3,32.2 "></polygon> <path class="st5" d="M373.5,30.5l1-0.1c0.1,0.4,0.3,0.6,0.4,0.8c0.3,0.1,0.5,0.3,0.8,0.3c0.4,0,0.6-0.1,0.8-0.3 c0.1-0.1,0.3-0.3,0.3-0.5c0-0.1,0-0.3-0.1-0.4s-0.3-0.1-0.4-0.3c-0.1,0-0.4-0.1-0.9-0.3c-0.6-0.1-1-0.4-1.3-0.5 c-0.4-0.3-0.5-0.6-0.5-1c0-0.3,0.1-0.5,0.3-0.8c0.1-0.3,0.4-0.4,0.6-0.5c0.3-0.1,0.6-0.1,1-0.1c0.6,0,1.2,0.1,1.5,0.4 c0.4,0.3,0.5,0.6,0.5,1.2h-1c0-0.3-0.1-0.5-0.3-0.6c-0.1-0.1-0.4-0.1-0.6-0.1c-0.3,0-0.5,0.1-0.8,0.3c-0.1,0.1-0.1,0.3-0.1,0.4 s0,0.3,0.1,0.4s0.5,0.3,1,0.4s0.9,0.3,1.2,0.4c0.3,0.1,0.5,0.3,0.6,0.5c0.1,0.3,0.3,0.5,0.3,0.9c0,0.3-0.1,0.6-0.3,0.9 c-0.1,0.3-0.4,0.5-0.8,0.6c-0.3,0.1-0.6,0.3-1.2,0.3s-1.2-0.1-1.5-0.5C373.7,31.5,373.5,31,373.5,30.5"></path> <path class="st13" d="M373.5,30.5l1-0.1c0.1,0.4,0.3,0.6,0.4,0.8c0.3,0.1,0.5,0.3,0.8,0.3c0.4,0,0.6-0.1,0.8-0.3 c0.1-0.1,0.3-0.3,0.3-0.5c0-0.1,0-0.3-0.1-0.4s-0.3-0.1-0.4-0.3c-0.1,0-0.4-0.1-0.9-0.3c-0.6-0.1-1-0.4-1.3-0.5 c-0.4-0.3-0.5-0.6-0.5-1c0-0.3,0.1-0.5,0.3-0.8c0.1-0.3,0.4-0.4,0.6-0.5c0.3-0.1,0.6-0.1,1-0.1c0.6,0,1.2,0.1,1.5,0.4 c0.4,0.3,0.5,0.6,0.5,1.2h-1c0-0.3-0.1-0.5-0.3-0.6c-0.1-0.1-0.4-0.1-0.6-0.1c-0.3,0-0.5,0.1-0.8,0.3c-0.1,0.1-0.1,0.3-0.1,0.4 s0,0.3,0.1,0.4s0.5,0.3,1,0.4s0.9,0.3,1.2,0.4c0.3,0.1,0.5,0.3,0.6,0.5c0.1,0.3,0.3,0.5,0.3,0.9c0,0.3-0.1,0.6-0.3,0.9 c-0.1,0.3-0.4,0.5-0.8,0.6c-0.3,0.1-0.6,0.3-1.2,0.3s-1.2-0.1-1.5-0.5C373.7,31.5,373.5,31,373.5,30.5z"></path> <polygon class="st5" points="378.7,32.2 378.7,26.8 382.5,26.8 382.5,27.8 379.9,27.8 379.9,29 382.1,29 382.1,30 379.9,30 379.9,32.2 "></polygon> <polygon class="st13" points="378.7,32.2 378.7,26.8 382.5,26.8 382.5,27.8 379.9,27.8 379.9,29 382.1,29 382.1,30 379.9,30 379.9,32.2 "></polygon> <polygon class="st5" points="383.4,32.2 383.4,26.8 387.3,26.8 387.3,27.8 384.4,27.8 384.4,29 387.1,29 387.1,29.9 384.4,29.9 384.4,31.3 387.5,31.3 387.5,32.2 "></polygon> <polygon class="st13" points="383.4,32.2 383.4,26.8 387.3,26.8 387.3,27.8 384.4,27.8 384.4,29 387.1,29 387.1,29.9 384.4,29.9 384.4,31.3 387.5,31.3 387.5,32.2 "></polygon> <path class="st5" d="M388.4,32.2v-5.4h2.3c0.5,0,1,0,1.3,0.1s0.5,0.3,0.6,0.5c0.1,0.3,0.3,0.5,0.3,0.9s-0.1,0.8-0.4,1 c-0.3,0.3-0.6,0.4-1,0.5c0.3,0.1,0.4,0.3,0.6,0.4c0.1,0.1,0.4,0.5,0.6,0.9l0.6,1h-1.2l-0.8-1.2c-0.3-0.4-0.5-0.6-0.5-0.8 c-0.1-0.1-0.3-0.1-0.4-0.3c-0.1,0-0.3,0-0.5,0h-0.3V32h-1.2V32.2L388.4,32.2z M389.4,29.1h0.8c0.5,0,0.9,0,1-0.1 c0.1,0,0.3-0.1,0.3-0.3c0.1-0.1,0.1-0.3,0.1-0.4s0-0.4-0.1-0.4c-0.1-0.1-0.3-0.1-0.4-0.3c-0.1,0-0.4,0-0.8,0h-0.9V29.1L389.4,29.1 L389.4,29.1L389.4,29.1z"></path> <path class="st13" d="M388.4,32.2v-5.4h2.3c0.5,0,1,0,1.3,0.1s0.5,0.3,0.6,0.5c0.1,0.3,0.3,0.5,0.3,0.9s-0.1,0.8-0.4,1 c-0.3,0.3-0.6,0.4-1,0.5c0.3,0.1,0.4,0.3,0.6,0.4c0.1,0.1,0.4,0.5,0.6,0.9l0.6,1h-1.2l-0.8-1.2c-0.3-0.4-0.5-0.6-0.5-0.8 c-0.1-0.1-0.3-0.1-0.4-0.3c-0.1,0-0.3,0-0.5,0h-0.3V32h-1.2V32.2L388.4,32.2z M389.4,29.1h0.8c0.5,0,0.9,0,1-0.1 c0.1,0,0.3-0.1,0.3-0.3c0.1-0.1,0.1-0.3,0.1-0.4s0-0.4-0.1-0.4c-0.1-0.1-0.3-0.1-0.4-0.3c-0.1,0-0.4,0-0.8,0h-0.9V29.1L389.4,29.1 L389.4,29.1L389.4,29.1z"></path> <path class="st14" d="M328.9,26.8h2.2c0.4,0,0.8,0,0.9,0c0.3,0,0.4,0.1,0.5,0.3c0.1,0.1,0.3,0.3,0.4,0.5c0.1,0.1,0.1,0.4,0.1,0.6 c0,0.3,0,0.5-0.3,0.6c-0.1,0.3-0.4,0.4-0.5,0.5c0.4,0.1,0.6,0.3,0.8,0.5c0.1,0.3,0.3,0.5,0.3,0.8s0,0.5-0.1,0.8s-0.3,0.4-0.5,0.5 c-0.3,0.1-0.4,0.3-0.8,0.3c-0.1,0-0.6,0-1.3,0h-1.8L328.9,26.8L328.9,26.8z M330.1,27.7V29h0.8c0.4,0,0.6,0,0.8,0 c0.1,0,0.4-0.1,0.4-0.1c0.1-0.1,0.1-0.3,0.1-0.4s0-0.3-0.1-0.4s-0.3-0.1-0.4-0.1s-0.4,0-0.9,0h-0.7V27.7L330.1,27.7L330.1,27.7z M330.1,29.9v1.4h1c0.4,0,0.6,0,0.8,0c0.1,0,0.3-0.1,0.4-0.3c0.1-0.1,0.1-0.3,0.1-0.5c0-0.1,0-0.3-0.1-0.4s-0.1-0.3-0.4-0.3 c-0.1,0-0.5-0.1-0.9-0.1h-0.9V29.9L330.1,29.9z"></path> <path class="st14" d="M339.2,32.2h-1.1l-0.5-1.3h-2.2l-0.4,1.3h-1.2l2.1-5.4h1.2L339.2,32.2z M337.3,30.1l-0.8-2.1l-0.8,2.1H337.3z "></path> <polygon class="st14" points="339.9,32.2 339.9,26.8 340.9,26.8 343.1,30.4 343.1,26.8 344.1,26.8 344.1,32.2 343,32.2 340.9,28.7 340.9,32.2 "></polygon> <polygon class="st14" points="345.3,32.2 345.3,26.8 346.3,26.8 346.3,29.2 348.6,26.8 350,26.8 348,29 350.2,32.2 348.7,32.2 347.2,29.7 346.3,30.6 346.3,32.2 "></polygon> <polygon class="st14" points="354,32.2 354,27.8 352.3,27.8 352.3,26.8 356.7,26.8 356.7,27.8 355.1,27.8 355.1,32.2 "></polygon> <path class="st14" d="M357.4,32.2v-5.4h2.3c0.5,0,1,0,1.3,0.1s0.5,0.3,0.6,0.5c0.1,0.3,0.3,0.5,0.3,0.9s-0.1,0.8-0.4,1 c-0.3,0.3-0.6,0.4-1,0.5c0.3,0.1,0.4,0.3,0.6,0.4c0.1,0.1,0.4,0.5,0.6,0.9l0.5,1h-1.3l-0.8-1.2c-0.3-0.4-0.5-0.6-0.5-0.8 c-0.1-0.1-0.3-0.1-0.4-0.3c-0.1,0-0.3,0-0.5,0h-0.3V32h-1V32.2L357.4,32.2z M358.5,29.1h0.8c0.5,0,0.9,0,1-0.1 c0.1,0,0.3-0.1,0.3-0.3c0.1-0.1,0.1-0.3,0.1-0.4s0-0.4-0.1-0.4c-0.1-0.1-0.3-0.1-0.4-0.3c-0.1,0-0.4,0-0.8,0h-0.9V29.1L358.5,29.1z "></path> <path class="st14" d="M367.7,32.2h-1.2l-0.5-1.3h-2.2l-0.4,1.3h-1.2l2.1-5.4h1.2L367.7,32.2z M365.7,30.1l-0.8-2.1l-0.8,2.1H365.7z "></path> <polygon class="st14" points="368.3,32.2 368.3,26.8 369.3,26.8 371.5,30.4 371.5,26.8 372.6,26.8 372.6,32.2 371.5,32.2 369.3,28.7 369.3,32.2 "></polygon> <path class="st14" d="M373.5,30.5l1-0.1c0.1,0.4,0.3,0.6,0.4,0.8c0.3,0.1,0.5,0.3,0.8,0.3c0.4,0,0.6-0.1,0.8-0.3 c0.1-0.1,0.3-0.3,0.3-0.5c0-0.1,0-0.3-0.1-0.4s-0.3-0.1-0.4-0.3c-0.1,0-0.4-0.1-0.9-0.3c-0.6-0.1-1-0.4-1.3-0.5 c-0.4-0.3-0.5-0.6-0.5-1c0-0.3,0.1-0.5,0.3-0.8c0.1-0.3,0.4-0.4,0.6-0.5c0.3-0.1,0.6-0.1,1-0.1c0.6,0,1.2,0.1,1.5,0.4 c0.4,0.3,0.5,0.6,0.5,1.2h-1c0-0.3-0.1-0.5-0.3-0.6c-0.1-0.1-0.4-0.1-0.6-0.1c-0.3,0-0.5,0.1-0.8,0.3c-0.1,0.1-0.1,0.3-0.1,0.4 s0,0.3,0.1,0.4s0.5,0.3,1,0.4s0.9,0.3,1.2,0.4c0.3,0.1,0.5,0.3,0.6,0.5c0.1,0.3,0.3,0.5,0.3,0.9c0,0.3-0.1,0.6-0.3,0.9 c-0.1,0.3-0.4,0.5-0.8,0.6c-0.3,0.1-0.6,0.3-1.2,0.3s-1.2-0.1-1.5-0.5C373.7,31.5,373.5,31,373.5,30.5"></path> <polygon class="st14" points="378.7,32.2 378.7,26.8 382.5,26.8 382.5,27.8 379.9,27.8 379.9,29 382.1,29 382.1,30 379.9,30 379.9,32.2 "></polygon> <polygon class="st14" points="383.4,32.2 383.4,26.8 387.3,26.8 387.3,27.8 384.4,27.8 384.4,29 387.1,29 387.1,29.9 384.4,29.9 384.4,31.3 387.5,31.3 387.5,32.2 "></polygon> <path class="st14" d="M388.4,32.2v-5.4h2.3c0.5,0,1,0,1.3,0.1s0.5,0.3,0.6,0.5c0.1,0.3,0.3,0.5,0.3,0.9s-0.1,0.8-0.4,1 c-0.3,0.3-0.6,0.4-1,0.5c0.3,0.1,0.4,0.3,0.6,0.4c0.1,0.1,0.4,0.5,0.6,0.9l0.6,1h-1.2l-0.8-1.2c-0.3-0.4-0.5-0.6-0.5-0.8 c-0.1-0.1-0.3-0.1-0.4-0.3c-0.1,0-0.3,0-0.5,0h-0.3V32h-1.2V32.2L388.4,32.2z M389.4,29.1h0.8c0.5,0,0.9,0,1-0.1 c0.1,0,0.3-0.1,0.3-0.3c0.1-0.1,0.1-0.3,0.1-0.4s0-0.4-0.1-0.4c-0.1-0.1-0.3-0.1-0.4-0.3c-0.1,0-0.4,0-0.8,0h-0.9V29.1L389.4,29.1 L389.4,29.1L389.4,29.1z"></path> <path class="st15" d="M329.2,12V6.6c0.1,0,0.3,0,0.4,0c0.4,0,1.8,0.4,1.4,0.9c-0.5,0.6-0.9,1-0.9,2.2c0,1.3,0.8,2.1,1.7,2.1 c0.9,0,1.7-0.8,1.7-2.1c0-1.4-0.8-3.3-4.1-3.7V5h-0.9h-0.8h-0.3v0.8c-3.2,0.4-4.5,3.2-4.5,5.7c0,2.1,0.6,3.9,2.3,4.9l2.2,1.4v6 c-0.8,0-2.7-0.4-2.7-1c0.6-0.8,1.3-1.4,1.3-2.8s-0.9-2.2-1.8-2.2s-1.8,1.2-1.8,2.4c0,2.7,2.6,4.5,4.9,4.2v0.8h0.3h0.8h0.9v-0.9 c1.4-0.3,2.1-0.6,2.6-1.2c1.3-1.3,1.9-2.4,1.9-4.8C333.8,14.8,331.4,13.3,329.2,12 M325.5,8.5c0-1.4,1-1.9,1.9-2.1v4.5 C326.2,10.3,325.5,9.7,325.5,8.5 M329.2,23.4v-4.8c0.8,0.5,1.7,1.4,1.7,2.6C330.9,22.5,330.1,23.2,329.2,23.4"></path> <path class="st16" d="M329.2,12V6.6c0.1,0,0.3,0,0.4,0c0.4,0,1.8,0.4,1.4,0.9c-0.5,0.6-0.9,1-0.9,2.2c0,1.3,0.8,2.1,1.7,2.1 c0.9,0,1.7-0.8,1.7-2.1c0-1.4-0.8-3.3-4.1-3.7V5h-0.9h-0.8h-0.3v0.8c-3.2,0.4-4.5,3.2-4.5,5.7c0,2.1,0.6,3.9,2.3,4.9l2.2,1.4v6 c-0.8,0-2.7-0.4-2.7-1c0.6-0.8,1.3-1.4,1.3-2.8s-0.9-2.2-1.8-2.2s-1.8,1.2-1.8,2.4c0,2.7,2.6,4.5,4.9,4.2v0.8h0.3h0.8h0.9v-0.9 c1.4-0.3,2.1-0.6,2.6-1.2c1.3-1.3,1.9-2.4,1.9-4.8C333.8,14.8,331.4,13.3,329.2,12z M325.5,8.5c0-1.4,1-1.9,1.9-2.1v4.5 C326.2,10.3,325.5,9.7,325.5,8.5z M329.2,23.4v-4.8c0.8,0.5,1.7,1.4,1.7,2.6C330.9,22.5,330.1,23.2,329.2,23.4z"></path> <path class="st15" d="M345.3,19.7c-0.4,0.3-0.9,0.4-1.9,0.3c-0.5-0.1-1.2-0.3-1.7-0.3c-0.6,0-1.3,0.1-1.9,0.4c0.6-1,1-2.3,1.2-3.6 h2.7v-2.1h-2.6c-0.1-1.4-0.5-2.7-0.5-4.1c0-2.7,0.6-3.6,1.8-3.6c0.4,0,1.3,0.1,1.4,0.8c0,0.1-0.1,0.3-0.4,0.4 c-0.6,0.4-1.3,0.9-1.3,2.4c0,1.4,0.8,2.3,1.8,2.3c1.3,0,2.1-0.9,2.1-2.7c0-1.7-1.2-4.2-5-4.2c-2.4,0-5,1.5-5,5.4 c0,1.3,0.3,2.3,0.6,3.3h-1.9v2.1h2.7c0.4,1.2,0.6,2.4,0.6,3.7c-0.4-0.1-0.8-0.3-1.2-0.3c-1,0-1.9,0.8-1.9,2.3 c0,1.3,0.6,2.2,1.5,2.2s1.5-0.8,1.8-1.9c0.1-0.4,0.1-0.5,0.3-0.4c1.3,1.2,2.6,2.3,4.2,2.3c2.6,0,3.6-2.7,3.7-5.9h-0.5 C345.8,18.9,345.5,19.4,345.3,19.7"></path> <path class="st16" d="M345.3,19.7c-0.4,0.3-0.9,0.4-1.9,0.3c-0.5-0.1-1.2-0.3-1.7-0.3c-0.6,0-1.3,0.1-1.9,0.4c0.6-1,1-2.3,1.2-3.6 h2.7v-2.1h-2.6c-0.1-1.4-0.5-2.7-0.5-4.1c0-2.7,0.6-3.6,1.8-3.6c0.4,0,1.3,0.1,1.4,0.8c0,0.1-0.1,0.3-0.4,0.4 c-0.6,0.4-1.3,0.9-1.3,2.4c0,1.4,0.8,2.3,1.8,2.3c1.3,0,2.1-0.9,2.1-2.7c0-1.7-1.2-4.2-5-4.2c-2.4,0-5,1.5-5,5.4 c0,1.3,0.3,2.3,0.6,3.3h-1.9v2.1h2.7c0.4,1.2,0.6,2.4,0.6,3.7c-0.4-0.1-0.8-0.3-1.2-0.3c-1,0-1.9,0.8-1.9,2.3 c0,1.3,0.6,2.2,1.5,2.2s1.5-0.8,1.8-1.9c0.1-0.4,0.1-0.5,0.3-0.4c1.3,1.2,2.6,2.3,4.2,2.3c2.6,0,3.6-2.7,3.7-5.9h-0.5 C345.8,18.9,345.5,19.4,345.3,19.7z"></path> <path class="st15" d="M353.1,8.1c0.3,0,0.4,0.1,0.6,0.3c0.1,0.3,0.4,0.6,0.5,1.3c0.3,1,0.8,1.5,1.3,1.5c0.3,0,0.5-0.1,0.6-0.4 c0.1-0.3,0.3-0.5,0.3-0.9c0-0.8,0-2.6-0.4-3c-0.3-0.3-2.1-0.1-3-0.1c-1.3,0-2.4,0.6-3.3,1.8c-0.8,1-1.3,2.4-1.5,4.2h-1.4V15h0.5 v0.1h0.8c0,0.3,0,0.4,0,0.6V16h-1.3v1.9h1.4c0.1,2.2,0.8,3.7,1.7,5c0.9,1.2,2.1,1.8,3.5,1.8c0.6,0,1.3-0.1,1.8-0.5s0.8-0.6,1-1.2 c0.3-0.5,0.4-1.8,0.4-2.2c0-0.4-0.1-0.6-0.3-1c-0.1-0.3-0.6-0.1-0.9-0.1s-0.5,0.1-0.8,0.4c-0.1,0.3-0.1,0.8-0.3,1.4 c-0.3,1.3-0.5,2.1-1,2.1c-0.6,0-1-0.4-1.4-1.3c-0.3-0.9-0.5-2.2-0.6-4.1h3.1v-1.9h-3.2v-0.1c0-0.3,0-0.5,0-0.6h3v-0.1h0.1v-2.2 h-3.1C351.5,9.7,352.1,8.1,353.1,8.1"></path> <path class="st16" d="M353.1,8.1c0.3,0,0.4,0.1,0.6,0.3c0.1,0.3,0.4,0.6,0.5,1.3c0.3,1,0.8,1.5,1.3,1.5c0.3,0,0.5-0.1,0.6-0.4 c0.1-0.3,0.3-0.5,0.3-0.9c0-0.8,0-2.6-0.4-3c-0.3-0.3-2.1-0.1-3-0.1c-1.3,0-2.4,0.6-3.3,1.8c-0.8,1-1.3,2.4-1.5,4.2h-1.4V15h0.5 v0.1h0.8c0,0.3,0,0.4,0,0.6V16h-1.3v1.9h1.4c0.1,2.2,0.8,3.7,1.7,5c0.9,1.2,2.1,1.8,3.5,1.8c0.6,0,1.3-0.1,1.8-0.5s0.8-0.6,1-1.2 c0.3-0.5,0.4-1.8,0.4-2.2c0-0.4-0.1-0.6-0.3-1c-0.1-0.3-0.6-0.1-0.9-0.1s-0.5,0.1-0.8,0.4c-0.1,0.3-0.1,0.8-0.3,1.4 c-0.3,1.3-0.5,2.1-1,2.1c-0.6,0-1-0.4-1.4-1.3c-0.3-0.9-0.5-2.2-0.6-4.1h3.1v-1.9h-3.2v-0.1c0-0.3,0-0.5,0-0.6h3v-0.1h0.1v-2.2 h-3.1C351.5,9.7,352.1,8.1,353.1,8.1z"></path> <path class="st15" d="M365.2,6v0.6h0.4c0.4,0,1.3,0.4,0.6,2.4l-1.2,3.1l-1.9-5.5h1.2V6h-7.2v0.6h0.8l3.2,8.9h-3.2v0.9v1.2l0,0h3.7 v0.9h-3.7l0,0v1.2v0.8h3.7v2.7h-1.3v0.6h7.3v-0.6h-1.5v-2.7h1.4v-1.9h-1.4v-0.9h1.4v-2.2h-1.4l0,0l2.2-6.3c0.8-2.3,1.3-2.6,1.7-2.6 h0.3V6H365.2z"></path> <path class="st16" d="M365.2,6v0.6h0.4c0.4,0,1.3,0.4,0.6,2.4l-1.2,3.1l-1.9-5.5h1.2V6h-7.2v0.6h0.8l3.2,8.9h-3.2v0.9v1.2l0,0h3.7 v0.9h-3.7l0,0v1.2v0.8h3.7v2.7h-1.3v0.6h7.3v-0.6h-1.5v-2.7h1.4v-1.9h-1.4v-0.9h1.4v-2.2h-1.4l0,0l2.2-6.3c0.8-2.3,1.3-2.6,1.7-2.6 h0.3V6H365.2z"></path> <path class="st5" d="M329.3,12V6.6c0.1,0,0.3,0,0.4,0c0.4,0,1.8,0.4,1.4,0.9c-0.5,0.6-0.9,1-0.9,2.2c0,1.3,0.8,2.1,1.7,2.1 c0.9,0,1.7-0.8,1.7-2.1c0-1.4-0.8-3.3-4.1-3.7V5h-0.9h-0.8h-0.3v0.8c-3.2,0.4-4.5,3.2-4.5,5.7c0,2.1,0.6,3.9,2.3,4.9l2.2,1.4v6 c-0.8,0-2.7-0.4-2.7-1c0.6-0.8,1.3-1.4,1.3-2.8s-0.9-2.2-1.8-2.2s-1.8,1.2-1.8,2.4c0,2.7,2.6,4.5,4.9,4.2v0.8h0.3h0.8h0.9v-0.9 c1.4-0.3,2.1-0.6,2.6-1.2c1.3-1.3,1.9-2.4,1.9-4.8C333.9,14.8,331.5,13.3,329.3,12 M325.5,8.5c0-1.4,1-1.9,1.9-2.1v4.5 C326.4,10.3,325.5,9.7,325.5,8.5 M329.3,23.4v-4.8c0.8,0.5,1.7,1.4,1.7,2.6C331,22.5,330.2,23.2,329.3,23.4"></path> <path class="st5" d="M345.3,19.7c-0.4,0.3-0.9,0.4-1.9,0.3c-0.5-0.1-1.2-0.3-1.7-0.3c-0.6,0-1.3,0.1-1.9,0.4c0.6-1,1-2.3,1.2-3.6 h2.7v-2.1h-2.6c-0.1-1.4-0.5-2.7-0.5-4.1c0-2.7,0.6-3.6,1.7-3.6c0.4,0,1.3,0.1,1.4,0.8c0,0.1-0.1,0.3-0.4,0.4 c-0.6,0.4-1.3,0.9-1.3,2.4c0,1.4,0.8,2.3,1.8,2.3c1.3,0,2.1-0.9,2.1-2.7c0-1.7-1.2-4.2-5-4.2c-2.4,0-5,1.5-5,5.4 c0,1.3,0.3,2.3,0.6,3.3h-1.9v2.1h2.7c0.4,1.2,0.6,2.4,0.6,3.7c-0.4-0.1-0.8-0.3-1.2-0.3c-1,0-1.9,0.8-1.9,2.3 c0,1.3,0.6,2.2,1.5,2.2s1.5-0.8,1.8-1.9c0.1-0.4,0.1-0.5,0.3-0.4c1.3,1.2,2.6,2.3,4.2,2.3c2.6,0,3.6-2.7,3.7-5.9h-0.5 C345.8,18.9,345.7,19.4,345.3,19.7"></path> <path class="st5" d="M353.3,8.1c0.3,0,0.4,0.1,0.6,0.3c0.1,0.3,0.4,0.6,0.5,1.3c0.3,1,0.6,1.5,1.3,1.5c0.3,0,0.5-0.1,0.6-0.4 c0.1-0.3,0.3-0.5,0.3-0.9c0-0.8,0-2.6-0.4-3c-0.3-0.3-2.1-0.1-3-0.1c-1.3,0-2.4,0.6-3.3,1.8c-0.8,1-1.3,2.4-1.5,4.2h-1.5V15h0.5 v0.1h0.8c0,0.3,0,0.4,0,0.6V16h-1.3v1.9h1.4c0.1,2.2,0.8,3.7,1.5,5c0.9,1.2,2.1,1.8,3.5,1.8c0.6,0,1.3-0.1,1.8-0.5s0.8-0.6,1-1.2 c0.3-0.5,0.4-1.8,0.4-2.2c0-0.4-0.1-0.6-0.3-1c-0.1-0.3-0.6-0.1-0.9-0.1s-0.5,0.1-0.6,0.4s-0.1,0.8-0.3,1.4c-0.3,1.3-0.5,2.1-1,2.1 c-0.6,0-1-0.4-1.4-1.3c-0.3-0.9-0.5-2.2-0.6-4.1h3.1v-1.9h-3.2v-0.1c0-0.3,0-0.5,0-0.6h3v-0.1h0.1v-2.2h-3.1 C351.6,9.7,352.2,8.1,353.3,8.1"></path> <path class="st5" d="M365.2,6v0.6h0.4c0.4,0,1.3,0.4,0.6,2.4l-1.2,3.1l-1.9-5.5h1V6h-7v0.6h0.8l3.2,8.9h-3.2v0.9v1.2l0,0h3.7v0.9 h-3.7l0,0v1.2v0.8h3.7v2.7h-1.3v0.6h7.3v-0.6h-1.4v-2.7h1.4v-1.9h-1.4v-0.9h1.4v-2.2h-1.4l0,0l2.2-6.3c0.8-2.3,1.3-2.6,1.5-2.6h0.3 V6H365.2z"></path> </g> <g> <path class="st17" d="M450.6,17.4c0,9.2-7.4,16.6-16.6,16.6s-16.6-7.4-16.6-16.6S424.8,0.8,434,0.8C443.1,0.7,450.6,8.2,450.6,17.4 "></path> <path class="st5" d="M439.8,16.8L439.8,16.8c1.5-0.8,2.5-2.4,2.5-4.3c0-2.1-1.1-3.7-2.7-4.4c-1-0.4-2-0.6-3.4-0.6h-0.7V6 c0-0.3-0.3-0.6-0.6-0.6h-1.6c-0.3,0-0.6,0.3-0.6,0.6v1.6h-1.8V6c0-0.3-0.3-0.6-0.6-0.6h-1.6c-0.3,0-0.6,0.3-0.6,0.6v1.6h-1.7 c-0.2,0-0.4,0.2-0.4,0.4v1.6c0,0.2,0.2,0.4,0.4,0.4h1.7v15h-1.6c-0.3,0-0.5,0.2-0.5,0.5v1.4c0,0.3,0.2,0.5,0.5,0.5h1.6V29 c0,0.3,0.3,0.6,0.6,0.6h1.6c0.3,0,0.6-0.3,0.6-0.6v-1.6h1.8V29c0,0.3,0.3,0.6,0.6,0.6h1.6c0.3,0,0.6-0.3,0.6-0.6v-1.6h1.1 c1.1,0,2-0.1,2.9-0.4c2-0.7,3.6-2.6,3.6-5.2C443,19.4,441.9,17.5,439.8,16.8 M436.1,9.9c0.8,0,1.5,0.1,2,0.4 c0.8,0.5,1.3,1.4,1.3,2.6c0,1.8-1.1,3-2.9,3h-5.8v-6H436.1z M438.4,24.6c-0.5,0.2-1.2,0.3-1.7,0.3h-5.8v-6.8h6 c2.1,0,3.4,1.3,3.4,3.4C440.2,22.9,439.5,24.1,438.4,24.6"></path> </g> <g id="XMLID_22_"> <rect id="XMLID_180_" x="160.8" y="2.9" class="st5" width="47.6" height="30.3"></rect> <path id="XMLID_179_" class="st18" d="M208.2,19.8c0,0-13,9.2-36.8,13.3h36.8V19.8z"></path> <path class="st14" d="M208.4,2.8h-47.8v30.7h47.9V2.8C208.5,2.8,208.4,2.8,208.4,2.8z M208.2,3.1c0,0.3,0,29.6,0,30 c-0.3,0-46.9,0-47.2,0c0-0.3,0-29.6,0-30C161.3,3.1,207.9,3.1,208.2,3.1z"></path> <g id="XMLID_23_"> <path class="st14" d="M164.8,12.1h-2V19h2c1.1,0,1.8-0.2,2.5-0.8c0.8-0.7,1.3-1.6,1.3-2.7C168.6,13.6,167,12.1,164.8,12.1z M166.4,17.3c-0.4,0.4-1,0.6-1.9,0.6h-0.4v-4.6h0.4c0.9,0,1.4,0.2,1.9,0.6c0.5,0.4,0.7,1.1,0.7,1.7 C167.2,16.3,166.9,16.9,166.4,17.3z"></path> <rect id="XMLID_174_" x="169.2" y="12.1" class="st14" width="1.4" height="6.9"></rect> <path id="XMLID_173_" class="st14" d="M173.9,14.8c-0.8-0.3-1.1-0.5-1.1-0.9s0.4-0.8,1-0.8c0.4,0,0.7,0.2,1.1,0.6l0.7-0.9 c-0.6-0.5-1.3-0.8-2-0.8c-1.2,0-2.2,0.9-2.2,2c0,1,0.4,1.4,1.7,1.9c0.5,0.2,0.8,0.3,0.9,0.4c0.3,0.2,0.4,0.4,0.4,0.7 c0,0.6-0.4,1-1.1,1c-0.6,0-1.2-0.3-1.5-0.9l-0.9,0.8c0.6,0.9,1.4,1.3,2.4,1.3c1.4,0,2.4-0.9,2.4-2.3 C175.8,15.9,175.4,15.4,173.9,14.8z"></path> <path id="XMLID_172_" class="st14" d="M176.3,15.6c0,2,1.6,3.6,3.7,3.6c0.6,0,1.1-0.1,1.7-0.4v-1.6c-0.5,0.5-1,0.8-1.6,0.8 c-1.4,0-2.3-1-2.3-2.4c0-1.3,1-2.4,2.3-2.4c0.6,0,1.1,0.2,1.7,0.8v-1.6c-0.6-0.3-1.1-0.4-1.7-0.4C177.9,12,176.3,13.6,176.3,15.6z "></path> <polygon id="XMLID_171_" class="st14" points="192.4,16.8 190.5,12.1 189,12.1 192,19.2 192.7,19.2 195.7,12.1 194.2,12.1 "></polygon> <polygon id="XMLID_170_" class="st14" points="196.3,19.1 200.1,19.1 200.1,17.9 197.7,17.9 197.7,16 200.1,16 200.1,14.9 197.7,14.9 197.7,13.3 200.1,13.3 200.1,12.1 196.3,12.1 "></polygon> <path class="st14" d="M205.5,14.2c0-1.3-0.9-2-2.5-2h-2v6.9h1.4v-2.8h0.2l1.9,2.8h1.7l-2.2-2.9C204.9,15.9,205.5,15.2,205.5,14.2z M202.8,15.3h-0.4v-2.1h0.4c0.8,0,1.3,0.4,1.3,1C204.1,15,203.7,15.3,202.8,15.3z"></path> <g> <g> <linearGradient id="XMLID_4_" gradientUnits="userSpaceOnUse" x1="187.6903" y1="17.9903" x2="185.1355" y2="21.9904" gradientTransform="matrix(1 0 0 -1 0 36.5499)"> <stop offset="0" style="stop-color:#F89F22"></stop> <stop offset="0.2036" style="stop-color:#F79C22"></stop> <stop offset="0.4336" style="stop-color:#F69321"></stop> <stop offset="0.6196" style="stop-color:#F58721"></stop> <stop offset="0.7793" style="stop-color:#F37F22"></stop> <stop offset="1" style="stop-color:#F27623"></stop> </linearGradient> <path id="XMLID_167_" class="st19" d="M189.5,15.6c0,2-1.7,3.7-3.7,3.7s-3.7-1.7-3.7-3.7s1.7-3.7,3.7-3.7 C187.8,11.9,189.5,13.6,189.5,15.6z"></path> <g id="XMLID_16_"> <g> <linearGradient id="XMLID_5_" gradientUnits="userSpaceOnUse" x1="187.2885" y1="18.0406" x2="183.5546" y2="25.3389" gradientTransform="matrix(1 0 0 -1 0 36.5499)"> <stop offset="0" style="stop-color:#000000"></stop> <stop offset="2.641718e-02" style="stop-color:#080808"></stop> <stop offset="0.2097" style="stop-color:#3F3F3F"></stop> <stop offset="0.3886" style="stop-color:#6C6C6C"></stop> <stop offset="0.5591" style="stop-color:#8F8F8F"></stop> <stop offset="0.7189" style="stop-color:#A8A8A8"></stop> <stop offset="0.8642" style="stop-color:#B7B7B7"></stop> <stop offset="0.9816" style="stop-color:#BDBDBD"></stop> </linearGradient> <path id="XMLID_17_" class="st20" d="M189.5,15.6c0,2-1.7,3.7-3.7,3.7s-3.7-1.7-3.7-3.7s1.7-3.7,3.7-3.7 C187.8,11.9,189.5,13.6,189.5,15.6z"></path> </g> </g> <linearGradient id="XMLID_6_" gradientUnits="userSpaceOnUse" x1="187.2885" y1="18.0406" x2="183.5546" y2="25.3389" gradientTransform="matrix(1 0 0 -1 0 36.5499)"> <stop offset="0" style="stop-color:#F58721"></stop> <stop offset="6.279500e-02" style="stop-color:#EF8223"></stop> <stop offset="0.4096" style="stop-color:#DE6D29"></stop> <stop offset="0.7257" style="stop-color:#D4602C"></stop> <stop offset="0.9816" style="stop-color:#D15C2D"></stop> </linearGradient> <path id="XMLID_163_" class="st21" d="M189.5,15.6c0,2-1.7,3.7-3.7,3.7s-3.7-1.7-3.7-3.7s1.7-3.7,3.7-3.7 C187.8,11.9,189.5,13.6,189.5,15.6z"></path> </g> </g> <g> <path class="st14" d="M206.4,12.4c0-0.1-0.1-0.2-0.2-0.2H206v0.6h0.1v-0.2l0.2,0.2h0.2l-0.2-0.3 C206.3,12.5,206.4,12.5,206.4,12.4z M206.1,12.5L206.1,12.5v-0.2l0,0c0.1,0,0.1,0,0.1,0.1C206.2,12.5,206.2,12.5,206.1,12.5z"></path> <path class="st14" d="M206.2,12c-0.3,0-0.5,0.2-0.5,0.5s0.2,0.5,0.5,0.5s0.5-0.2,0.5-0.5S206.5,12,206.2,12z M206.2,12.9 c-0.2,0-0.4-0.2-0.4-0.4s0.2-0.4,0.4-0.4c0.2,0,0.4,0.2,0.4,0.4C206.6,12.8,206.4,12.9,206.2,12.9z"></path> </g> </g> </g> </svg> 