<?xml version="1.0" encoding="UTF-8"?> <!-- Generator: Adobe Illustrator 21.0.2, SVG Export Plug-In . SVG Version: 6.00 Build 0) --> <svg xmlns="http://www.w3.org/2000/svg" xmlns:xlink="http://www.w3.org/1999/xlink" version="1.1" id="Layer_1" x="0px" y="0px" viewBox="0 0 210 35" style="enable-background:new 0 0 210 35;" xml:space="preserve"> <style type="text/css"> .st0{fill:#A5D53A;} .st1{fill:#FFFFFF;} </style> <path class="st0" d="M6,15.7c0,0,0.5-2-1.2-3.8C3.1,10.2,1,10.2,1,10.2s-0.5,2.3,1.1,4.1C3.8,15.9,6,15.7,6,15.7z M9.7,15.3 c0,0,2-1.1,2.3-3.4C12.4,9.6,10.5,8,10.5,8s-1.7,1.2-2.1,3.7C8.1,14,9.7,15.3,9.7,15.3z M10.9,17.6c0,2.5,1.7,3.6,1.7,3.6 s1.8-1.4,1.8-3.7s-2-3.8-2-3.8S11,15.2,10.9,17.6z M6.7,10.5c0,0,1.5-1.4,1.1-3.8C7.3,4.4,5.6,3.1,5.6,3.1S3.9,4.9,4.4,7.2 C4.8,9.5,6.7,10.5,6.7,10.5z M8.1,20.2c0,0-0.1-2.1-2.2-3.2c-2.1-1.2-4.1-0.5-4.1-0.5S2.1,19,4,20.1S8.1,20.2,8.1,20.2z M11.6,24.3 c0,0-0.6-2-2.9-2.7c-2.3-0.6-4.2,0.5-4.2,0.5s0.7,2.3,2.9,2.9C9.8,25.6,11.6,24.3,11.6,24.3z M15.6,27.1c0,0-1.1-1.7-3.6-1.6 s-3.8,1.6-3.8,1.6s1.4,2,3.7,2C14.2,29,15.6,27.1,15.6,27.1z M17.3,28.3c-2.3,0.4-3.6,2.1-3.6,2.1s1.6,1.8,3.9,1.5s3.4-2.3,3.4-2.3 S19.6,28,17.3,28.3z M7.6,11.8H6.5c0,0.1-0.2,12.7,18.6,18.2l0.4-1.1C7.5,23.5,7.6,12.2,7.6,11.8z M62.3,15.7c0,0,2.2,0.2,3.8-1.5 s1.1-4.1,1.1-4.1s-2.1,0-3.8,1.7C61.8,13.7,62.3,15.7,62.3,15.7z M56.4,11.9c0.4,2.3,2.3,3.4,2.3,3.4s1.6-1.4,1.2-3.8 c-0.4-2.5-2.1-3.7-2.1-3.7S56,9.5,56.4,11.9z M53.8,17.5c0,2.3,1.8,3.7,1.8,3.7s1.7-1.1,1.7-3.6s-1.6-3.9-1.6-3.9 S53.8,15.2,53.8,17.5z M63.9,7.2c0.4-2.3-1.4-4.1-1.4-4.1s-1.7,1.2-2.2,3.6c-0.5,2.3,1.1,3.8,1.1,3.8S63.5,9.5,63.9,7.2z M62.5,17 c-2.1,1.2-2.2,3.2-2.2,3.2s2,0.9,4.1-0.2c2.1-1.1,2.2-3.6,2.2-3.6S64.6,15.9,62.5,17z M59.6,21.6c-2.3,0.6-2.9,2.7-2.9,2.7 s1.7,1.4,4.1,0.7c2.2-0.6,2.9-2.9,2.9-2.9S61.9,21,59.6,21.6z M56.3,25.5c-2.5-0.1-3.6,1.6-3.6,1.6s1.2,1.8,3.7,1.8 c2.3,0.1,3.7-2,3.7-2S58.7,25.6,56.3,25.5z M51,28.3c-2.3-0.4-3.7,1.2-3.7,1.2s1.1,2,3.4,2.3c2.3,0.4,3.9-1.5,3.9-1.5 S53.4,28.7,51,28.3z M61.9,11.6h-1.1c0,0.5,0.1,11.8-17.7,17.1l0.4,1.1C62,24.4,61.9,11.8,61.9,11.6z"></path> <path class="st0" d="M147.5,15.7c0,0,0.5-2-1.2-3.8c-1.7-1.7-3.8-1.7-3.8-1.7s-0.5,2.3,1.1,4.1C145.3,15.9,147.5,15.7,147.5,15.7z M151.2,15.3c0,0,2-1.1,2.3-3.4C153.9,9.6,152,8,152,8s-1.7,1.2-2.1,3.7C149.6,14,151.2,15.3,151.2,15.3z M152.4,17.6 c0,2.5,1.7,3.6,1.7,3.6s1.8-1.4,1.8-3.7s-2-3.8-2-3.8S152.6,15.2,152.4,17.6z M148.3,10.5c0,0,1.5-1.4,1.1-3.8 c-0.5-2.3-2.2-3.6-2.2-3.6s-1.7,1.7-1.2,4.1C146.3,9.5,148.3,10.5,148.3,10.5z M149.6,20.2c0,0-0.1-2.1-2.2-3.2 c-2.1-1.2-4.1-0.5-4.1-0.5s0.2,2.5,2.2,3.6S149.6,20.2,149.6,20.2z M153.2,24.3c0,0-0.6-2-2.9-2.7c-2.3-0.6-4.2,0.5-4.2,0.5 s0.7,2.3,2.9,2.9C151.3,25.6,153.2,24.3,153.2,24.3z M157.1,27.1c0,0-1.1-1.7-3.6-1.6s-3.8,1.6-3.8,1.6s1.4,2,3.7,2 C155.8,29,157.1,27.1,157.1,27.1z M158.8,28.3c-2.3,0.4-3.6,2.1-3.6,2.1s1.6,1.8,3.9,1.5c2.3-0.4,3.4-2.3,3.4-2.3 S161.2,28,158.8,28.3z M149.1,11.8H148c0,0.1-0.2,12.7,18.6,18.2l0.4-1.1C149,23.5,149.1,12.2,149.1,11.8z M203.8,15.7 c0,0,2.2,0.2,3.8-1.5s1.1-4.1,1.1-4.1s-2.1,0-3.8,1.7C203.3,13.7,203.8,15.7,203.8,15.7z M197.9,11.9c0.4,2.3,2.3,3.4,2.3,3.4 s1.6-1.4,1.2-3.8c-0.4-2.5-2.1-3.7-2.1-3.7S197.5,9.5,197.9,11.9z M195.3,17.5c0,2.3,1.8,3.7,1.8,3.7s1.7-1.1,1.7-3.6 s-1.6-3.9-1.6-3.9S195.3,15.2,195.3,17.5z M205.4,7.2c0.4-2.3-1.4-4.1-1.4-4.1s-1.7,1.2-2.2,3.6s1.1,3.8,1.1,3.8S205,9.5,205.4,7.2z M204.1,17c-2.1,1.2-2.2,3.2-2.2,3.2s2,0.9,4.1-0.2s2.2-3.6,2.2-3.6S206.1,15.9,204.1,17z M201.1,21.6c-2.3,0.6-2.9,2.7-2.9,2.7 s1.7,1.4,4.1,0.7c2.2-0.6,2.9-2.9,2.9-2.9S203.4,21,201.1,21.6z M197.8,25.5c-2.5-0.1-3.6,1.6-3.6,1.6s1.2,1.8,3.7,1.8 c2.3,0.1,3.7-2,3.7-2S200.2,25.6,197.8,25.5z M192.5,28.3c-2.3-0.4-3.7,1.2-3.7,1.2s1.1,2,3.4,2.3c2.3,0.4,3.9-1.5,3.9-1.5 S195,28.7,192.5,28.3z M203.4,11.6h-1.1c0,0.5,0.1,11.8-17.7,17.1l0.4,1.1C203.6,24.4,203.4,11.8,203.4,11.6z"></path> <path class="st0" d="M77.1,15.7c0,0,0.5-2-1.2-3.8c-1.7-1.7-3.8-1.7-3.8-1.7s-0.5,2.3,1.1,4.1C74.9,15.9,77.1,15.7,77.1,15.7z M80.8,15.3c0,0,2-1.1,2.3-3.4C83.5,9.6,81.6,8,81.6,8s-1.7,1.2-2.1,3.7C79.3,14,80.8,15.3,80.8,15.3z M82,17.6 c0,2.5,1.7,3.6,1.7,3.6s1.8-1.4,1.8-3.7s-2-3.8-2-3.8S82.3,15.2,82,17.6z M77.9,10.5c0,0,1.5-1.4,1.1-3.8c-0.5-2.3-2.2-3.6-2.2-3.6 s-1.7,1.7-1.2,4.1C75.9,9.5,77.9,10.5,77.9,10.5z M79.3,20.2c0,0-0.1-2.1-2.2-3.2C75,15.8,73,16.5,73,16.5s0.2,2.5,2.2,3.6 S79.3,20.2,79.3,20.2z M82.8,24.3c0,0-0.6-2-2.9-2.7c-2.3-0.6-4.2,0.5-4.2,0.5s0.7,2.3,2.9,2.9C80.9,25.6,82.8,24.3,82.8,24.3z M86.8,27.1c0,0-1.1-1.7-3.6-1.6s-3.8,1.6-3.8,1.6s1.4,2,3.7,2C85.4,29,86.8,27.1,86.8,27.1z M88.4,28.3c-2.3,0.4-3.6,2.1-3.6,2.1 s1.6,1.8,3.9,1.5c2.3-0.4,3.4-2.3,3.4-2.3S90.8,28,88.4,28.3z M78.8,11.8h-1.1c0,0.1-0.2,12.7,18.6,18.2l0.4-1.1 C78.6,23.5,78.8,12.2,78.8,11.8z M133.4,15.7c0,0,2.2,0.2,3.8-1.5s1.1-4.1,1.1-4.1s-2.1,0-3.8,1.7C132.9,13.7,133.4,15.7,133.4,15.7 z M127.5,11.9c0.4,2.3,2.3,3.4,2.3,3.4s1.6-1.4,1.2-3.8c-0.4-2.5-2.1-3.7-2.1-3.7S127.1,9.5,127.5,11.9z M124.9,17.5 c0,2.3,1.8,3.7,1.8,3.7s1.7-1.1,1.7-3.6s-1.6-3.9-1.6-3.9S124.9,15.2,124.9,17.5z M135,7.2c0.4-2.3-1.4-4.1-1.4-4.1 s-1.7,1.2-2.2,3.6s1.1,3.8,1.1,3.8S134.6,9.5,135,7.2z M133.8,17c-2.1,1.2-2.2,3.2-2.2,3.2s2,0.9,4.1-0.2s2.2-3.6,2.2-3.6 S135.8,15.9,133.8,17z M130.8,21.6c-2.3,0.6-2.9,2.7-2.9,2.7s1.7,1.4,4.1,0.7c2.2-0.6,2.9-2.9,2.9-2.9S133,21,130.8,21.6z M127.4,25.5c-2.5-0.1-3.6,1.6-3.6,1.6s1.2,1.8,3.7,1.8c2.3,0.1,3.7-2,3.7-2S129.8,25.6,127.4,25.5z M122.1,28.3 c-2.3-0.4-3.7,1.2-3.7,1.2s1.1,2,3.4,2.3c2.3,0.4,3.9-1.5,3.9-1.5S124.6,28.7,122.1,28.3z M133,11.6h-1.1c0,0.5,0.1,11.8-17.7,17.1 l0.4,1.1C133.3,24.4,133,11.8,133,11.6z"></path> <g> <path class="st1" d="M102.5,5.7l-0.2,1.2h1.1v0.7h-1.2l-0.3,1.7h-0.7l0.3-1.7h-1l-0.3,1.7h-0.7l0.3-1.7h-1V6.9h1.2l0.2-1.2H99V5 h1.2l0.3-1.7h0.7L100.9,5h1l0.3-1.7h0.7L102.7,5h1v0.7H102.5z M100.5,6.9h1l0.2-1.2h-1L100.5,6.9z"></path> <path class="st1" d="M107.1,9.3h-1V5.4c0-0.5,0-0.8,0-1.1c-0.1,0.1-0.1,0.1-0.2,0.2s-0.4,0.3-0.9,0.8l-0.5-0.6l1.8-1.4h0.8 C107.1,3.3,107.1,9.3,107.1,9.3z"></path> <path class="st1" d="M92.4,15.3c0,0.5-0.2,1-0.6,1.3c-0.4,0.3-0.9,0.5-1.6,0.5S89,17,88.5,16.8v-0.9c0.3,0.1,0.6,0.2,0.9,0.3 c0.3,0.1,0.6,0.1,0.9,0.1c0.4,0,0.7-0.1,0.9-0.2c0.2-0.1,0.3-0.3,0.3-0.6c0-0.2-0.1-0.4-0.3-0.6c-0.2-0.2-0.5-0.3-1-0.6 c-0.5-0.2-0.9-0.5-1.2-0.8c-0.2-0.3-0.3-0.6-0.3-1c0-0.5,0.2-0.9,0.5-1.2c0.4-0.3,0.8-0.4,1.4-0.4s1.1,0.1,1.7,0.4L92,12.1 c-0.5-0.2-1-0.3-1.4-0.3c-0.3,0-0.6,0.1-0.7,0.2s-0.2,0.3-0.2,0.5s0,0.3,0.1,0.4s0.2,0.2,0.3,0.3c0.2,0.1,0.4,0.2,0.8,0.4 s0.8,0.4,1,0.5c0.2,0.2,0.4,0.3,0.5,0.5C92.3,14.8,92.4,15.1,92.4,15.3z"></path> <path class="st1" d="M96.9,17h-3.4v-6h3.4v0.8h-2.4v1.6h2.3v0.8h-2.3v1.9h2.4V17z"></path> <path class="st1" d="M100.8,11.7c-0.6,0-1,0.2-1.3,0.6S99,13.3,99,14s0.2,1.3,0.5,1.7c0.3,0.4,0.8,0.6,1.3,0.6c0.3,0,0.5,0,0.7-0.1 s0.5-0.1,0.7-0.2v0.8c-0.5,0.2-1,0.3-1.6,0.3c-0.9,0-1.6-0.3-2-0.8c-0.5-0.5-0.7-1.3-0.7-2.3c0-0.6,0.1-1.2,0.3-1.6 c0.2-0.5,0.6-0.8,1-1.1s0.9-0.4,1.5-0.4s1.2,0.1,1.7,0.4l-0.4,0.8c-0.2-0.1-0.4-0.2-0.6-0.3S101,11.7,100.8,11.7z"></path> <path class="st1" d="M108.2,11v3.9c0,0.4-0.1,0.8-0.3,1.2c-0.2,0.3-0.5,0.6-0.8,0.8s-0.8,0.3-1.3,0.3c-0.7,0-1.3-0.2-1.7-0.6 c-0.4-0.4-0.6-0.9-0.6-1.6v-4h1v3.8c0,0.5,0.1,0.9,0.3,1.1c0.2,0.2,0.6,0.4,1.1,0.4c0.9,0,1.4-0.5,1.4-1.5V11H108.2z"></path> <path class="st1" d="M110.7,14.6V17h-1v-6h1.7c0.8,0,1.3,0.1,1.7,0.4c0.4,0.3,0.6,0.7,0.6,1.3c0,0.7-0.4,1.3-1.2,1.6l1.7,2.7h-1.1 l-1.4-2.4H110.7z M110.7,13.8h0.7c0.5,0,0.8-0.1,1-0.3s0.3-0.4,0.3-0.8c0-0.3-0.1-0.6-0.3-0.7c-0.2-0.1-0.6-0.2-1-0.2h-0.6 L110.7,13.8L110.7,13.8z"></path> <path class="st1" d="M118.5,17h-3.4v-6h3.4v0.8h-2.4v1.6h2.3v0.8h-2.3v1.9h2.4V17z"></path> <path class="st1" d="M92.3,19.9c-0.5,0-0.9,0.2-1.2,0.5c-0.3,0.4-0.4,0.9-0.4,1.5c0,0.7,0.1,1.2,0.4,1.5s0.7,0.5,1.2,0.5 c0.2,0,0.5,0,0.7-0.1c0.2,0,0.4-0.1,0.7-0.2v0.8c-0.4,0.2-0.9,0.2-1.5,0.2c-0.8,0-1.4-0.2-1.9-0.7s-0.6-1.2-0.6-2.1 c0-0.6,0.1-1.1,0.3-1.5c0.2-0.4,0.5-0.8,0.9-1s0.9-0.3,1.4-0.3c0.6,0,1.1,0.1,1.6,0.4l-0.3,0.7c-0.2,0-0.4-0.1-0.6-0.1 C92.8,19.9,92.5,19.9,92.3,19.9z"></path> <path class="st1" d="M98.3,24.7l-0.5-1.5h-2.1l-0.5,1.5h-0.9l2.1-5.5h1l2.1,5.5H98.3z M97.5,22.4L97,20.9c0-0.1-0.1-0.3-0.2-0.5 s-0.1-0.4-0.1-0.5c-0.1,0.3-0.2,0.6-0.3,1l-0.5,1.4h1.6V22.4z"></path> <path class="st1" d="M103.1,23.2c0,0.5-0.2,0.9-0.5,1.2s-0.8,0.4-1.5,0.4s-1.1-0.1-1.5-0.3v-0.8c0.3,0.1,0.5,0.2,0.8,0.3 c0.3,0.1,0.5,0.1,0.8,0.1c0.4,0,0.6-0.1,0.8-0.2c0.2-0.1,0.3-0.3,0.3-0.5s-0.1-0.4-0.2-0.5c-0.2-0.1-0.5-0.3-1-0.5 s-0.9-0.4-1.1-0.7s-0.3-0.6-0.3-0.9c0-0.5,0.2-0.8,0.5-1.1c0.3-0.3,0.8-0.4,1.3-0.4s1,0.1,1.6,0.3l-0.3,0.7 c-0.5-0.2-0.9-0.3-1.3-0.3c-0.3,0-0.5,0.1-0.7,0.2s-0.2,0.3-0.2,0.5c0,0.1,0,0.3,0.1,0.4s0.2,0.2,0.3,0.3c0.1,0.1,0.4,0.2,0.7,0.4 c0.4,0.2,0.7,0.3,0.9,0.5s0.3,0.3,0.4,0.5C103.1,22.7,103.1,22.9,103.1,23.2z"></path> <path class="st1" d="M104.2,24.7v-5.5h0.9v5.5H104.2z"></path> <path class="st1" d="M111.1,24.7H110l-2.7-4.4l0,0v0.2c0,0.5,0.1,0.9,0.1,1.3v2.9h-0.8v-5.5h1.1l2.7,4.4l0,0c0-0.1,0-0.3,0-0.6 c0-0.4,0-0.6,0-0.8v-2.9h0.8L111.1,24.7L111.1,24.7z"></path> <path class="st1" d="M117.4,21.9c0,0.9-0.2,1.6-0.7,2.1c-0.4,0.5-1.1,0.7-1.9,0.7s-1.5-0.2-1.9-0.7s-0.7-1.2-0.7-2.1 s0.2-1.6,0.7-2.1s1.1-0.7,1.9-0.7s1.4,0.2,1.9,0.7C117.2,20.3,117.4,21,117.4,21.9z M113.2,21.9c0,0.7,0.1,1.2,0.4,1.5 s0.7,0.5,1.2,0.5s0.9-0.2,1.2-0.5c0.3-0.3,0.4-0.9,0.4-1.5c0-0.7-0.1-1.2-0.4-1.5s-0.7-0.5-1.2-0.5s-0.9,0.2-1.2,0.5 C113.4,20.7,113.2,21.2,113.2,21.9z"></path> </g> <g> <path class="st1" d="M14.4,10.3h-0.9V5.4h-1.7V4.6H16v0.8h-1.7L14.4,10.3L14.4,10.3z"></path> <path class="st1" d="M22,7.5c0,0.9-0.2,1.6-0.7,2.2c-0.5,0.5-1.1,0.8-2,0.8s-1.5-0.3-2-0.8s-0.7-1.2-0.7-2.2c0-0.9,0.2-1.7,0.7-2.2 s1.1-0.8,2-0.8c0.8,0,1.5,0.3,2,0.8C21.7,5.8,22,6.5,22,7.5z M17.6,7.5c0,0.7,0.1,1.2,0.4,1.6c0.3,0.4,0.7,0.5,1.3,0.5 c0.6,0,1-0.2,1.3-0.5C20.8,8.7,21,8.2,21,7.5s-0.1-1.2-0.4-1.6s-0.7-0.5-1.3-0.5c-0.6,0-1,0.2-1.3,0.5C17.8,6.2,17.6,6.8,17.6,7.5z "></path> <path class="st1" d="M27,6.3c0,0.6-0.2,1.1-0.6,1.4C26,8,25.5,8.2,24.7,8.2h-0.6v2.1h-0.9V4.6h1.6c0.7,0,1.2,0.1,1.6,0.4 S27,5.8,27,6.3z M24.1,7.4h0.5c0.5,0,0.8-0.1,1.1-0.3C25.9,7,26,6.7,26,6.4c0-0.3-0.1-0.6-0.3-0.7s-0.5-0.2-0.9-0.2h-0.6v1.9H24.1z "></path> <path class="st1" d="M27.6,8.6V7.8h2v0.8H27.6z"></path> <path class="st1" d="M31.6,8v2.3h-0.9V4.6h1.6c0.7,0,1.3,0.1,1.6,0.4c0.4,0.3,0.5,0.7,0.5,1.2c0,0.7-0.4,1.2-1.1,1.5l1.6,2.5h-1.1 L32.5,8H31.6z M31.6,7.3h0.6c0.4,0,0.7-0.1,0.9-0.2c0.2-0.2,0.3-0.4,0.3-0.7c0-0.3-0.1-0.6-0.3-0.7s-0.5-0.2-1-0.2h-0.6L31.6,7.3 L31.6,7.3z"></path> <path class="st1" d="M39.3,10.3l-0.6-1.6h-2.2L36,10.3h-1l2.1-5.7h1l2.1,5.7H39.3z M38.5,7.9L38,6.4c0-0.1-0.1-0.3-0.2-0.5 c-0.1-0.2-0.1-0.4-0.1-0.5c-0.1,0.3-0.2,0.7-0.3,1l-0.5,1.5H38.5z"></path> <path class="st1" d="M43,10.3h-0.9V5.4h-1.7V4.6h4.3v0.8H43V10.3z"></path> <path class="st1" d="M48.8,10.3h-3.2V4.6h3.2v0.8h-2.3V7h2.1v0.8h-2.1v1.8h2.3V10.3z"></path> <path class="st1" d="M54.7,7.4c0,0.9-0.3,1.7-0.8,2.2s-1.3,0.7-2.3,0.7H50V4.6h1.8c0.9,0,1.6,0.2,2.1,0.7S54.7,6.5,54.7,7.4z M53.7,7.4c0-1.4-0.6-2-1.9-2H51v4.1h0.7C53,9.5,53.7,8.8,53.7,7.4z"></path> <path class="st1" d="M21.5,17.6l-1.7-4.8l0,0c0,0.7,0.1,1.4,0.1,2v2.8h-0.8v-5.7h1.3l1.6,4.5l0,0l1.6-4.5h1.3v5.7H24v-2.8 c0-0.3,0-0.7,0-1.1s0-0.7,0-0.8l0,0l-1.7,4.8h-0.8V17.6z"></path> <path class="st1" d="M31.5,14.8c0,0.9-0.2,1.6-0.7,2.2c-0.5,0.5-1.1,0.8-2,0.8s-1.5-0.3-2-0.8s-0.7-1.2-0.7-2.2 c0-0.9,0.2-1.7,0.7-2.2s1.1-0.8,2-0.8c0.8,0,1.5,0.3,2,0.8S31.5,13.9,31.5,14.8z M27.2,14.8c0,0.7,0.1,1.2,0.4,1.6 c0.3,0.4,0.7,0.5,1.3,0.5c0.6,0,1-0.2,1.3-0.5c0.3-0.4,0.4-0.9,0.4-1.6c0-0.7-0.1-1.2-0.4-1.6c-0.3-0.4-0.7-0.5-1.3-0.5 c-0.6,0-1,0.2-1.3,0.5C27.3,13.6,27.2,14.1,27.2,14.8z"></path> <path class="st1" d="M32.7,11.9h1.7c0.8,0,1.4,0.1,1.7,0.3s0.5,0.6,0.5,1.1c0,0.3-0.1,0.6-0.3,0.8s-0.4,0.4-0.7,0.4l0,0 c0.4,0.1,0.7,0.2,0.9,0.4s0.3,0.5,0.3,0.9c0,0.5-0.2,0.9-0.5,1.2c-0.4,0.3-0.9,0.4-1.5,0.4h-2.1C32.7,17.4,32.7,11.9,32.7,11.9z M33.7,14.3h0.9c0.4,0,0.7-0.1,0.9-0.2c0.2-0.1,0.3-0.3,0.3-0.6s-0.1-0.5-0.3-0.6s-0.5-0.2-0.9-0.2h-0.8v1.6H33.7z M33.7,15.1v1.8 h1c0.4,0,0.7-0.1,0.9-0.2s0.3-0.4,0.3-0.7c0-0.3-0.1-0.5-0.3-0.7c-0.2-0.1-0.5-0.2-0.9-0.2C34.7,15.1,33.7,15.1,33.7,15.1z"></path> <path class="st1" d="M38,17.6v-5.7h0.9v5.7H38z"></path> <path class="st1" d="M40.4,17.6v-5.7h0.9v4.9h2.4v0.8H40.4z"></path> <path class="st1" d="M48,17.6h-3.2v-5.7H48v0.8h-2.3v1.6h2.1v0.8h-2.1v1.8H48V17.6z"></path> <path class="st1" d="M21.7,20c-0.5,0-1,0.2-1.3,0.6s-0.5,0.9-0.5,1.6s0.1,1.2,0.4,1.6s0.7,0.5,1.3,0.5c0.2,0,0.5,0,0.7-0.1 c0.2,0,0.5-0.1,0.7-0.2v0.8c-0.4,0.2-1,0.3-1.5,0.3c-0.8,0-1.5-0.3-1.9-0.8S19,23.1,19,22.1c0-0.6,0.1-1.1,0.3-1.6 c0.2-0.4,0.5-0.8,0.9-1s0.9-0.4,1.4-0.4c0.6,0,1.1,0.1,1.6,0.4L23,20.3c-0.2-0.1-0.4-0.2-0.6-0.2C22.2,20,22,20,21.7,20z"></path> <path class="st1" d="M27.9,25l-0.6-1.6h-2.2L24.6,25h-1l2.1-5.7h1l2.1,5.7H27.9z M27.1,22.6L26.5,21c0-0.1-0.1-0.3-0.2-0.5 s-0.1-0.4-0.1-0.5c-0.1,0.3-0.2,0.7-0.3,1l-0.5,1.5h1.7V22.6z"></path> <path class="st1" d="M32.9,23.4c0,0.5-0.2,0.9-0.6,1.2C32,24.9,31.5,25,30.9,25s-1.2-0.1-1.6-0.3v-0.9c0.3,0.1,0.5,0.2,0.8,0.3 s0.6,0.1,0.8,0.1c0.4,0,0.6-0.1,0.8-0.2s0.3-0.3,0.3-0.6c0-0.2-0.1-0.4-0.2-0.5c-0.2-0.1-0.5-0.3-1-0.5s-0.9-0.5-1.1-0.7 s-0.3-0.6-0.3-1c0-0.5,0.2-0.9,0.5-1.1c0.3-0.3,0.8-0.4,1.4-0.4c0.5,0,1.1,0.1,1.6,0.4l-0.3,0.8c-0.5-0.2-1-0.3-1.4-0.3 c-0.3,0-0.5,0.1-0.7,0.2s-0.2,0.3-0.2,0.5c0,0.1,0,0.3,0.1,0.4s0.2,0.2,0.3,0.3c0.1,0.1,0.4,0.2,0.8,0.4c0.4,0.2,0.7,0.3,0.9,0.5 s0.3,0.3,0.4,0.5C32.9,22.9,32.9,23.2,32.9,23.4z"></path> <path class="st1" d="M34,25v-5.7h1V25H34z"></path> <path class="st1" d="M41.2,25h-1.1l-2.8-4.5l0,0v0.3c0,0.5,0.1,0.9,0.1,1.3v3h-0.8v-5.7h1.1l2.8,4.5l0,0c0-0.1,0-0.3,0-0.7 c0-0.4,0-0.7,0-0.9v-3h0.9V25H41.2z"></path> <path class="st1" d="M47.8,22.1c0,0.9-0.2,1.6-0.7,2.2c-0.5,0.5-1.1,0.8-2,0.8s-1.5-0.3-2-0.8s-0.7-1.2-0.7-2.2 c0-0.9,0.2-1.7,0.7-2.2s1.1-0.8,2-0.8c0.8,0,1.5,0.3,2,0.8C47.6,20.5,47.8,21.2,47.8,22.1z M43.4,22.1c0,0.7,0.1,1.2,0.4,1.6 c0.3,0.4,0.7,0.5,1.3,0.5s1-0.2,1.3-0.5c0.3-0.4,0.4-0.9,0.4-1.6s-0.1-1.2-0.4-1.6c-0.3-0.4-0.7-0.5-1.3-0.5s-1,0.2-1.3,0.5 C43.6,20.9,43.4,21.4,43.4,22.1z"></path> </g> <g> <path class="st1" d="M163.5,9.3l-1.6-4.6h0c0,0.7,0.1,1.3,0.1,1.9v2.7h-0.8V3.7h1.3l1.5,4.4h0l1.6-4.4h1.3v5.5h-0.9V6.5 c0-0.3,0-0.6,0-1.1s0-0.7,0-0.8h0l-1.7,4.6H163.5z"></path> <path class="st1" d="M171.7,9.3l-0.6-1.5H169l-0.5,1.5h-1l2.1-5.6h1l2.1,5.6H171.7z M170.9,7l-0.5-1.5c0-0.1-0.1-0.3-0.2-0.5 c-0.1-0.2-0.1-0.4-0.1-0.5c-0.1,0.3-0.2,0.7-0.3,1L169.3,7H170.9z"></path> <path class="st1" d="M176.6,7.8c0,0.5-0.2,0.9-0.5,1.2c-0.4,0.3-0.8,0.4-1.5,0.4c-0.6,0-1.1-0.1-1.5-0.3V8.2 c0.3,0.1,0.5,0.2,0.8,0.3c0.3,0.1,0.5,0.1,0.8,0.1c0.4,0,0.6-0.1,0.8-0.2c0.2-0.1,0.3-0.3,0.3-0.5c0-0.2-0.1-0.4-0.2-0.5 c-0.2-0.1-0.5-0.3-1-0.5c-0.5-0.2-0.9-0.4-1.1-0.7c-0.2-0.3-0.3-0.6-0.3-0.9c0-0.5,0.2-0.8,0.5-1.1c0.3-0.3,0.8-0.4,1.3-0.4 c0.5,0,1.1,0.1,1.6,0.3l-0.3,0.7c-0.5-0.2-0.9-0.3-1.3-0.3c-0.3,0-0.5,0.1-0.7,0.2c-0.2,0.1-0.2,0.3-0.2,0.5c0,0.1,0,0.3,0.1,0.4 c0.1,0.1,0.2,0.2,0.3,0.3c0.1,0.1,0.4,0.2,0.8,0.4c0.4,0.2,0.7,0.3,0.9,0.5s0.3,0.3,0.4,0.5S176.6,7.5,176.6,7.8z"></path> <path class="st1" d="M180.9,7.8c0,0.5-0.2,0.9-0.5,1.2c-0.4,0.3-0.8,0.4-1.5,0.4c-0.6,0-1.1-0.1-1.5-0.3V8.2 c0.3,0.1,0.5,0.2,0.8,0.3c0.3,0.1,0.5,0.1,0.8,0.1c0.4,0,0.6-0.1,0.8-0.2c0.2-0.1,0.3-0.3,0.3-0.5c0-0.2-0.1-0.4-0.2-0.5 c-0.2-0.1-0.5-0.3-1-0.5c-0.5-0.2-0.9-0.4-1.1-0.7c-0.2-0.3-0.3-0.6-0.3-0.9c0-0.5,0.2-0.8,0.5-1.1c0.3-0.3,0.8-0.4,1.3-0.4 c0.5,0,1.1,0.1,1.6,0.3l-0.3,0.7c-0.5-0.2-0.9-0.3-1.3-0.3c-0.3,0-0.5,0.1-0.7,0.2c-0.2,0.1-0.2,0.3-0.2,0.5c0,0.1,0,0.3,0.1,0.4 c0.1,0.1,0.2,0.2,0.3,0.3c0.1,0.1,0.4,0.2,0.8,0.4c0.4,0.2,0.7,0.3,0.9,0.5s0.3,0.3,0.4,0.5S180.9,7.5,180.9,7.8z"></path> <path class="st1" d="M181.9,9.3V3.7h0.9v5.5H181.9z"></path> <path class="st1" d="M187.5,3.7h0.9l-1.9,5.5h-1l-1.9-5.5h0.9l1.2,3.4c0.1,0.2,0.1,0.4,0.2,0.6c0.1,0.3,0.1,0.5,0.1,0.6 c0-0.2,0.1-0.4,0.2-0.7c0.1-0.3,0.1-0.4,0.2-0.6L187.5,3.7z"></path> <path class="st1" d="M192.3,9.3h-3.1V3.7h3.1v0.8H190V6h2.1v0.8H190v1.7h2.2V9.3z"></path> <path class="st1" d="M165.2,11.6c-0.5,0-0.9,0.2-1.2,0.6c-0.3,0.4-0.4,0.9-0.4,1.5c0,0.7,0.1,1.2,0.4,1.5c0.3,0.3,0.7,0.5,1.2,0.5 c0.2,0,0.5,0,0.7-0.1c0.2,0,0.4-0.1,0.7-0.2v0.8c-0.4,0.2-0.9,0.2-1.5,0.2c-0.8,0-1.4-0.2-1.9-0.7c-0.4-0.5-0.7-1.2-0.7-2.1 c0-0.6,0.1-1.1,0.3-1.5s0.5-0.8,0.9-1c0.4-0.2,0.9-0.3,1.4-0.3c0.6,0,1.1,0.1,1.6,0.4l-0.3,0.8c-0.2-0.1-0.4-0.2-0.6-0.2 C165.6,11.6,165.4,11.6,165.2,11.6z"></path> <path class="st1" d="M171.2,16.4l-0.6-1.5h-2.1l-0.5,1.5h-1l2.1-5.6h1l2.1,5.6H171.2z M170.4,14.1l-0.5-1.5c0-0.1-0.1-0.3-0.2-0.5 c-0.1-0.2-0.1-0.4-0.1-0.5c-0.1,0.3-0.2,0.7-0.3,1l-0.5,1.4H170.4z"></path> <path class="st1" d="M176.1,14.9c0,0.5-0.2,0.9-0.5,1.2c-0.4,0.3-0.8,0.4-1.5,0.4c-0.6,0-1.1-0.1-1.5-0.3v-0.9 c0.3,0.1,0.5,0.2,0.8,0.3c0.3,0.1,0.5,0.1,0.8,0.1c0.4,0,0.6-0.1,0.8-0.2c0.2-0.1,0.3-0.3,0.3-0.5c0-0.2-0.1-0.4-0.2-0.5 c-0.2-0.1-0.5-0.3-1-0.5c-0.5-0.2-0.9-0.4-1.1-0.7c-0.2-0.3-0.3-0.6-0.3-0.9c0-0.5,0.2-0.8,0.5-1.1c0.3-0.3,0.8-0.4,1.3-0.4 c0.5,0,1.1,0.1,1.6,0.3l-0.3,0.7c-0.5-0.2-0.9-0.3-1.3-0.3c-0.3,0-0.5,0.1-0.7,0.2c-0.2,0.1-0.2,0.3-0.2,0.5c0,0.1,0,0.3,0.1,0.4 c0.1,0.1,0.2,0.2,0.3,0.3c0.1,0.1,0.4,0.2,0.8,0.4c0.4,0.2,0.7,0.3,0.9,0.5s0.3,0.3,0.4,0.5S176.1,14.6,176.1,14.9z"></path> <path class="st1" d="M177.2,16.4v-5.5h0.9v5.5H177.2z"></path> <path class="st1" d="M184.1,16.4H183l-2.7-4.4h0l0,0.2c0,0.5,0.1,0.9,0.1,1.3v2.9h-0.8v-5.5h1.1l2.7,4.4h0c0-0.1,0-0.3,0-0.6 c0-0.4,0-0.7,0-0.9v-2.9h0.8V16.4z"></path> <path class="st1" d="M190.5,13.6c0,0.9-0.2,1.6-0.7,2.1c-0.5,0.5-1.1,0.8-1.9,0.8c-0.8,0-1.5-0.2-1.9-0.7c-0.4-0.5-0.7-1.2-0.7-2.1 c0-0.9,0.2-1.6,0.7-2.1c0.5-0.5,1.1-0.7,1.9-0.7c0.8,0,1.5,0.2,1.9,0.7S190.5,12.7,190.5,13.6z M186.3,13.6c0,0.7,0.1,1.2,0.4,1.6 c0.3,0.4,0.7,0.5,1.2,0.5c0.5,0,0.9-0.2,1.2-0.5c0.3-0.3,0.4-0.9,0.4-1.6c0-0.7-0.1-1.2-0.4-1.5s-0.7-0.5-1.2-0.5 c-0.5,0-1,0.2-1.2,0.5C186.4,12.4,186.3,12.9,186.3,13.6z"></path> <path class="st1" d="M160.3,25.1c-0.2,0-0.5,0-0.6-0.1v-0.8c0.2,0.1,0.4,0.1,0.6,0.1c0.5,0,0.7-0.3,0.7-0.9V18h0.9v5.3 c0,0.6-0.1,1-0.4,1.3C161.2,24.9,160.8,25.1,160.3,25.1z"></path> <path class="st1" d="M166.7,23.5l-0.6-1.5H164l-0.5,1.5h-1l2.1-5.6h1l2.1,5.6H166.7z M165.9,21.2l-0.5-1.5c0-0.1-0.1-0.3-0.2-0.5 c-0.1-0.2-0.1-0.4-0.1-0.5c-0.1,0.3-0.2,0.7-0.3,1l-0.5,1.4H165.9z"></path> <path class="st1" d="M170.8,18.7c-0.5,0-0.9,0.2-1.2,0.6c-0.3,0.4-0.4,0.9-0.4,1.5c0,0.7,0.1,1.2,0.4,1.5c0.3,0.3,0.7,0.5,1.2,0.5 c0.2,0,0.5,0,0.7-0.1c0.2,0,0.4-0.1,0.7-0.2v0.8c-0.4,0.2-0.9,0.2-1.5,0.2c-0.8,0-1.4-0.2-1.9-0.7c-0.4-0.5-0.7-1.2-0.7-2.1 c0-0.6,0.1-1.1,0.3-1.5s0.5-0.8,0.9-1c0.4-0.2,0.9-0.3,1.4-0.3c0.6,0,1.1,0.1,1.6,0.4L172,19c-0.2-0.1-0.4-0.2-0.6-0.2 C171.2,18.7,171,18.7,170.8,18.7z"></path> <path class="st1" d="M177.6,23.5h-1.1l-1.7-2.5l-0.5,0.4v2.1h-0.9V18h0.9v2.6c0.2-0.3,0.5-0.6,0.7-0.9l1.5-1.8h1 c-1,1.1-1.7,1.9-2.1,2.4L177.6,23.5z"></path> <path class="st1" d="M182,19.7c0,0.6-0.2,1-0.6,1.3c-0.4,0.3-0.9,0.5-1.6,0.5h-0.6v2.1h-0.9V18h1.6c0.7,0,1.2,0.1,1.6,0.4 C181.8,18.7,182,19.1,182,19.7z M179.2,20.7h0.5c0.5,0,0.8-0.1,1-0.2s0.3-0.4,0.3-0.8c0-0.3-0.1-0.6-0.3-0.7 c-0.2-0.2-0.5-0.2-0.9-0.2h-0.6V20.7z"></path> <path class="st1" d="M188,20.7c0,0.9-0.2,1.6-0.7,2.1c-0.5,0.5-1.1,0.8-1.9,0.8c-0.8,0-1.5-0.2-1.9-0.7c-0.4-0.5-0.7-1.2-0.7-2.1 c0-0.9,0.2-1.6,0.7-2.1c0.5-0.5,1.1-0.7,1.9-0.7c0.8,0,1.5,0.2,1.9,0.7S188,19.8,188,20.7z M183.8,20.7c0,0.7,0.1,1.2,0.4,1.6 c0.3,0.4,0.7,0.5,1.2,0.5c0.5,0,0.9-0.2,1.2-0.5c0.3-0.3,0.4-0.9,0.4-1.6c0-0.7-0.1-1.2-0.4-1.5s-0.7-0.5-1.2-0.5 c-0.5,0-1,0.2-1.2,0.5C183.9,19.5,183.8,20.1,183.8,20.7z"></path> <path class="st1" d="M191.1,23.5h-0.9v-4.8h-1.6V18h4.2v0.8h-1.6V23.5z"></path> </g> </svg> 