<?xml version="1.0" encoding="UTF-8"?> <svg xmlns="http://www.w3.org/2000/svg" id="Layer_1" data-name="Layer 1" viewBox="0 0 186.46 15.88"><defs><style>.cls-1{fill:#f8ec1b;}</style></defs><title>support</title><path class="cls-1" d="M108.34,18h-1.85a.26.26,0,0,0-.26.26v1.06a.26.26,0,0,0,.26.26h1.85a.26.26,0,0,0,.26-.26V18.23A.26.26,0,0,0,108.34,18Z" transform="translate(-3.81 -4.2)"></path><path class="cls-1" d="M103.31,11.35h-2.38a.8.8,0,0,0-.79.79v3.71a.8.8,0,0,0,.79.79h2.38Z" transform="translate(-3.81 -4.2)"></path><path class="cls-1" d="M102.25,17.17h-1.06a2.12,2.12,0,0,0,2.12,2.12h2.38V18.23h-2.38A1.06,1.06,0,0,1,102.25,17.17Z" transform="translate(-3.81 -4.2)"></path><path class="cls-1" d="M113.36,10.82h.79a6.61,6.61,0,0,0-13.23,0H102a5.55,5.55,0,1,1,11.11,0h.26Z" transform="translate(-3.81 -4.2)"></path><path class="cls-1" d="M114.16,11.35h-2.38v5.29h2.38a.8.8,0,0,0,.79-.79V12.14A.8.8,0,0,0,114.16,11.35Z" transform="translate(-3.81 -4.2)"></path><path class="cls-1" d="M111.09,13.28h-.63V12.5a.31.31,0,0,0-.63,0v.79H108.5l1.6-2.67a.31.31,0,0,0-.54-.32l-1.89,3.14a.31.31,0,0,0,.27.48h1.89v.94a.31.31,0,0,0,.63,0v-.94h.63a.31.31,0,1,0,0-.63Z" transform="translate(-3.81 -4.2)"></path><path class="cls-1" d="M104,14.57a.31.31,0,0,0,.14.6H107a.31.31,0,1,0,0-.63h-1.75A3.81,3.81,0,0,0,107,11.71a1.57,1.57,0,0,0-2.75-1,.31.31,0,1,0,.47.42.94.94,0,0,1,1.65.62C106.37,13.38,104.05,14.56,104,14.57Z" transform="translate(-3.81 -4.2)"></path><path class="cls-1" d="M13.3,8.92a19.7,19.7,0,0,0-4.5,3.87L7.13,11.47a5.84,5.84,0,0,0-.94.81l3.06,3.11a.11.11,0,0,0,.09,0h0a.12.12,0,0,0,.09-.08,18.71,18.71,0,0,1,4.2-5.81.12.12,0,0,0,0-.14A3.42,3.42,0,0,0,13.3,8.92Z" transform="translate(-3.81 -4.2)"></path><path class="cls-1" d="M15.31,6.17c-4.63,0-5.41-1.76-5.42-1.77a.23.23,0,0,0-.21-.15h0a.24.24,0,0,0-.21.14S8.65,6.17,4,6.17a.23.23,0,0,0-.23.23v7.87c0,3.22,5.54,5.69,5.77,5.79l.09,0,.09,0c.24-.1,5.77-2.57,5.77-5.79V6.4A.23.23,0,0,0,15.31,6.17Zm-1,7.65c0,2.52-4.33,4.45-4.52,4.53l-.07,0-.07,0c-.18-.08-4.52-2-4.52-4.53V7.65a.18.18,0,0,1,.18-.18c3.61,0,4.24-1.38,4.24-1.39A.18.18,0,0,1,9.67,6h0a.18.18,0,0,1,.17.11s.62,1.39,4.24,1.39a.18.18,0,0,1,.18.18v6.16Z" transform="translate(-3.81 -4.2)"></path><path class="cls-1" d="M19.24,14.79a4.09,4.09,0,0,0,2.07.58c1.18,0,1.87-.62,1.87-1.52s-.48-1.31-1.68-1.78c-1.46-.52-2.36-1.27-2.36-2.53S20.28,7.12,22,7.12a4.06,4.06,0,0,1,2,.44l-.32.94A3.56,3.56,0,0,0,22,8.07c-1.22,0-1.68.73-1.68,1.34,0,.83.54,1.25,1.78,1.72,1.51.58,2.28,1.31,2.28,2.63s-1,2.57-3.13,2.57a4.61,4.61,0,0,1-2.28-.57Z" transform="translate(-3.81 -4.2)"></path><path class="cls-1" d="M29.48,16.2l-.09-.81h0a2.39,2.39,0,0,1-2,1,1.83,1.83,0,0,1-2-1.84c0-1.55,1.38-2.4,3.86-2.39V12a1.32,1.32,0,0,0-1.46-1.49,3.2,3.2,0,0,0-1.67.48l-.27-.77A4,4,0,0,1,28,9.64c2,0,2.44,1.34,2.44,2.63v2.4a9,9,0,0,0,.11,1.54Zm-.17-3.27c-1.27,0-2.72.2-2.72,1.44a1,1,0,0,0,1.1,1.11,1.6,1.6,0,0,0,1.55-1.07,1.21,1.21,0,0,0,.07-.37Z" transform="translate(-3.81 -4.2)"></path><path class="cls-1" d="M32.44,16.2V10.67h-.9V9.78h.9v-.3a3,3,0,0,1,.74-2.24,2.23,2.23,0,0,1,1.56-.6,2.7,2.7,0,0,1,1,.19l-.16.9a1.74,1.74,0,0,0-.74-.15c-1,0-1.25.88-1.25,1.86v.34h1.55v.89H33.59V16.2Z" transform="translate(-3.81 -4.2)"></path><path class="cls-1" d="M36.67,13.2a2.06,2.06,0,0,0,2.2,2.23,4.22,4.22,0,0,0,1.78-.33l.2.83a5.18,5.18,0,0,1-2.13.4,3,3,0,0,1-3.16-3.24c0-1.94,1.14-3.46,3-3.46,2.1,0,2.65,1.84,2.65,3a4.39,4.39,0,0,1,0,.54Zm3.42-.83a1.66,1.66,0,0,0-1.62-1.9,1.93,1.93,0,0,0-1.79,1.9Z" transform="translate(-3.81 -4.2)"></path><path class="cls-1" d="M51.1,16.2c-.25-.25-.49-.5-.84-.87a3.66,3.66,0,0,1-2.61,1,2.53,2.53,0,0,1-2.74-2.51,2.94,2.94,0,0,1,1.75-2.61v0a3.07,3.07,0,0,1-.74-1.87,2.17,2.17,0,0,1,2.27-2.2,1.86,1.86,0,0,1,2,1.9c0,.94-.54,1.68-2,2.39v0c.76.88,1.6,1.86,2.17,2.49a6.55,6.55,0,0,0,.86-2.61H52.3A6.79,6.79,0,0,1,51,14.62l1.47,1.58ZM49.7,14.66c-.53-.58-1.52-1.67-2.52-2.81A2.2,2.2,0,0,0,46,13.67a1.76,1.76,0,0,0,1.83,1.8A2.5,2.5,0,0,0,49.7,14.66ZM47,9.21a2.51,2.51,0,0,0,.68,1.6c.9-.52,1.49-1,1.49-1.75a1.05,1.05,0,0,0-1-1.15A1.16,1.16,0,0,0,47,9.21Z" transform="translate(-3.81 -4.2)"></path><path class="cls-1" d="M56.18,14.79a4.09,4.09,0,0,0,2.07.58c1.18,0,1.87-.62,1.87-1.52s-.48-1.31-1.68-1.78c-1.46-.52-2.36-1.27-2.36-2.53S57.22,7.12,59,7.12a4.06,4.06,0,0,1,2,.44l-.32.94a3.56,3.56,0,0,0-1.7-.42c-1.22,0-1.68.73-1.68,1.34,0,.83.54,1.25,1.78,1.72,1.51.58,2.28,1.31,2.28,2.63s-1,2.57-3.13,2.57a4.61,4.61,0,0,1-2.28-.57Z" transform="translate(-3.81 -4.2)"></path><path class="cls-1" d="M63.56,13.2a2.06,2.06,0,0,0,2.2,2.23,4.22,4.22,0,0,0,1.78-.33l.2.83a5.18,5.18,0,0,1-2.13.4,3,3,0,0,1-3.16-3.24c0-1.94,1.14-3.46,3-3.46,2.1,0,2.65,1.84,2.65,3a4.39,4.39,0,0,1,0,.54ZM67,12.37a1.66,1.66,0,0,0-1.62-1.9,1.93,1.93,0,0,0-1.79,1.9Z" transform="translate(-3.81 -4.2)"></path><path class="cls-1" d="M74.12,16a4.29,4.29,0,0,1-1.84.37,3,3,0,0,1-3.2-3.28,3.26,3.26,0,0,1,3.45-3.41,3.9,3.9,0,0,1,1.62.33l-.27.9a2.71,2.71,0,0,0-1.35-.3A2.22,2.22,0,0,0,70.27,13a2.2,2.2,0,0,0,2.23,2.4,3.31,3.31,0,0,0,1.43-.32Z" transform="translate(-3.81 -4.2)"></path><path class="cls-1" d="M80.86,14.45c0,.66,0,1.25.05,1.75h-1l-.07-1h0a2.41,2.41,0,0,1-2.12,1.19c-1,0-2.21-.56-2.21-2.81V9.78h1.17v3.55c0,1.22.37,2,1.43,2a1.69,1.69,0,0,0,1.54-1.06,1.72,1.72,0,0,0,.11-.6V9.78h1.17Z" transform="translate(-3.81 -4.2)"></path><path class="cls-1" d="M82.79,11.78c0-.75,0-1.41-.05-2h1l0,1.26h.05a1.93,1.93,0,0,1,1.78-1.41,1.23,1.23,0,0,1,.33,0v1.1a1.71,1.71,0,0,0-.4,0A1.64,1.64,0,0,0,84,12.24a3.25,3.25,0,0,0-.05.54V16.2H82.79Z" transform="translate(-3.81 -4.2)"></path><path class="cls-1" d="M87.64,13.2a2.06,2.06,0,0,0,2.2,2.23,4.22,4.22,0,0,0,1.78-.33l.2.83a5.18,5.18,0,0,1-2.13.4,3,3,0,0,1-3.16-3.24c0-1.94,1.14-3.46,3-3.46,2.1,0,2.65,1.84,2.65,3a4.39,4.39,0,0,1,0,.54Zm3.42-.83a1.66,1.66,0,0,0-1.62-1.9,1.93,1.93,0,0,0-1.79,1.9Z" transform="translate(-3.81 -4.2)"></path><path class="cls-1" d="M118.22,16.35v-.72l.92-.89c2.2-2.1,3.2-3.21,3.21-4.51a1.54,1.54,0,0,0-1.71-1.68,2.94,2.94,0,0,0-1.83.73l-.37-.82a3.78,3.78,0,0,1,2.44-.87,2.42,2.42,0,0,1,2.64,2.51c0,1.59-1.15,2.88-3,4.63l-.69.64v0h3.87v1Z" transform="translate(-3.81 -4.2)"></path><path class="cls-1" d="M128.62,16.35V14h-4v-.77l3.85-5.5h1.26v5.36h1.21V14h-1.21v2.35Zm0-3.26V10.21q0-.68,0-1.35h0c-.27.5-.48.88-.72,1.27l-2.11,2.93v0Z" transform="translate(-3.81 -4.2)"></path><path class="cls-1" d="M131.21,16.88l3.7-9.61h.9l-3.71,9.61Z" transform="translate(-3.81 -4.2)"></path><path class="cls-1" d="M142,7.73V8.5l-3.75,7.85H137l3.74-7.63v0h-4.22v-1Z" transform="translate(-3.81 -4.2)"></path><path class="cls-1" d="M146.22,14.94a4.09,4.09,0,0,0,2.07.58c1.18,0,1.87-.62,1.87-1.52s-.48-1.31-1.68-1.78c-1.46-.52-2.36-1.27-2.36-2.53s1.15-2.43,2.89-2.43a4.06,4.06,0,0,1,2,.44l-.32.94a3.55,3.55,0,0,0-1.7-.42c-1.22,0-1.68.73-1.68,1.34,0,.83.54,1.25,1.78,1.72,1.51.58,2.28,1.31,2.28,2.63s-1,2.57-3.13,2.57a4.61,4.61,0,0,1-2.28-.57Z" transform="translate(-3.81 -4.2)"></path><path class="cls-1" d="M158.25,14.6c0,.66,0,1.25.05,1.75h-1l-.07-1h0a2.42,2.42,0,0,1-2.12,1.19c-1,0-2.21-.56-2.21-2.81V9.93H154v3.55c0,1.22.37,2,1.43,2A1.69,1.69,0,0,0,157,14.46a1.73,1.73,0,0,0,.11-.6V9.93h1.17Z" transform="translate(-3.81 -4.2)"></path><path class="cls-1" d="M160.18,12c0-.82,0-1.49-.05-2.1h1l.05,1.1h0a2.53,2.53,0,0,1,2.28-1.25c1.55,0,2.72,1.31,2.72,3.26,0,2.31-1.41,3.45-2.92,3.45a2.25,2.25,0,0,1-2-1h0V19h-1.15Zm1.15,1.71a2.64,2.64,0,0,0,.05.48,1.8,1.8,0,0,0,1.75,1.37c1.23,0,1.95-1,1.95-2.48,0-1.29-.68-2.39-1.91-2.39a1.86,1.86,0,0,0-1.76,1.45,1.84,1.84,0,0,0-.08.48Z" transform="translate(-3.81 -4.2)"></path><path class="cls-1" d="M167.72,12c0-.82,0-1.49-.05-2.1h1l.05,1.1h0a2.52,2.52,0,0,1,2.28-1.25c1.55,0,2.72,1.31,2.72,3.26,0,2.31-1.41,3.45-2.92,3.45a2.25,2.25,0,0,1-2-1h0V19h-1.15Zm1.15,1.71a2.55,2.55,0,0,0,.05.48,1.8,1.8,0,0,0,1.75,1.37c1.23,0,1.95-1,1.95-2.48,0-1.29-.68-2.39-1.91-2.39A1.86,1.86,0,0,0,169,12.15a1.93,1.93,0,0,0-.08.48Z" transform="translate(-3.81 -4.2)"></path><path class="cls-1" d="M181.07,13.08a3.14,3.14,0,0,1-3.2,3.41,3.05,3.05,0,0,1-3.08-3.3A3.13,3.13,0,0,1,178,9.78,3,3,0,0,1,181.07,13.08Zm-5.09.07c0,1.41.81,2.47,1.95,2.47s1.95-1,1.95-2.49c0-1.09-.54-2.47-1.92-2.47S176,11.93,176,13.15Z" transform="translate(-3.81 -4.2)"></path><path class="cls-1" d="M182.54,11.93c0-.75,0-1.41-.05-2h1l0,1.26h.05a1.93,1.93,0,0,1,1.78-1.41,1.23,1.23,0,0,1,.33,0v1.1a1.72,1.72,0,0,0-.4,0,1.64,1.64,0,0,0-1.56,1.5,3.2,3.2,0,0,0-.05.54v3.42h-1.15Z" transform="translate(-3.81 -4.2)"></path><path class="cls-1" d="M188.6,8.08V9.93h1.67v.89H188.6v3.46c0,.79.22,1.25.88,1.25a2.63,2.63,0,0,0,.68-.08l.05.88a2.85,2.85,0,0,1-1,.16,1.61,1.61,0,0,1-1.26-.49,2.37,2.37,0,0,1-.45-1.67v-3.5h-1V9.93h1V8.39Z" transform="translate(-3.81 -4.2)"></path></svg> 