<?xml version="1.0" encoding="utf-8"?>
<!-- Generator: Adobe Illustrator 21.1.0, SVG Export Plug-In . SVG Version: 6.00 Build 0)  -->
<svg version="1.1" id="Layer_1" xmlns="http://www.w3.org/2000/svg" xmlns:xlink="http://www.w3.org/1999/xlink" x="0px" y="0px"
	 viewBox="0 0 345.5 34.4" style="enable-background:new 0 0 345.5 34.4;" xml:space="preserve">
<style type="text/css">
	.st0{fill:#0059A0;}
	.st1{fill:#F9A61C;}
	.st2{fill:#EC2130;}
	.st3{fill:#FCB131;}
	.st4{fill:#203A70;}
	.st5{fill:#FFFFFF;}
	.st6{fill:#EE3E96;}
	.st7{fill:none;}
	.st8{fill:#F9B919;}
</style>
<g>
	<g>
		<polygon class="st0" points="24.5,27.5 28,6.8 33.8,6.8 30.3,27.5 		"/>
		<path class="st0" d="M50.7,7.3c-1.1-0.4-2.9-0.8-5-0.8c-5.6,0-9.5,2.8-9.5,6.9c0,2.9,2.8,4.6,4.9,5.6c2.2,1,2.9,1.7,2.9,2.5
			c0,1.4-1.8,2.1-3.4,2.1c-2.2,0-3.5-0.3-5.3-1.1l-0.7-0.3l-0.8,4.6c1.3,0.6,3.8,1.1,6.3,1.1c6,0,9.8-2.8,9.8-7.1
			c0-2.4-1.5-4.2-4.8-5.6c-2-1-3.2-1.5-3.2-2.5c0-0.8,1-1.8,3.2-1.8c1.8,0,3.2,0.4,4.2,0.8l0.6,0.3L50.7,7.3"/>
		<path class="st0" d="M65.3,6.8H61c-1.4,0-2.4,0.4-2.9,1.7l-8.4,19h6c0,0,1-2.5,1.3-3.1c0.7,0,6.4,0,7.3,0c0.1,0.7,0.7,3.1,0.7,3.1
			h5L65.3,6.8 M58.3,20.2c0.4-1.3,2.2-5.9,2.2-5.9s0.4-1.3,0.7-2l0.4,1.8c0,0,1.1,4.9,1.3,6L58.3,20.2L58.3,20.2z"/>
		<path class="st0" d="M19.8,6.8l-5.6,14.1L13.6,18c-1-3.4-4.2-6.9-7.8-8.7l5,18.2h6l9-20.7L19.8,6.8"/>
		<path class="st1" d="M9.2,6.8H0.1L0,7.2c7.1,1.7,11.8,5.9,13.7,10.9l-2-9.7C11.4,7.2,10.4,6.8,9.2,6.8"/>
	</g>
</g>
<g>
	<g>
		<g>
			<g>
				<path class="st2" d="M118,0.7c9.1,0,16.4,7.3,16.4,16.4s-7.3,16.4-16.4,16.4c-9.1,0-16.4-7.3-16.4-16.4S108.9,0.7,118,0.7z"/>
				<g>
					<path class="st3" d="M139.9,0.7c-4.2,0-8,1.6-11,4.2c-0.6,0.6-1.2,1.1-1.6,1.8h3.3c0.5,0.6,0.8,1.2,1.3,1.8h-5.8
						c-0.4,0.6-0.7,1.2-0.9,1.8h7.7c0.2,0.6,0.5,1.2,0.7,1.8h-9.2c-0.2,0.6-0.4,1.2-0.5,1.8h10c0.2,1.1,0.4,2.2,0.4,3.4
						c0,1.8-0.4,3.5-0.8,5.2h-9.1c0.2,0.6,0.5,1.2,0.7,1.8h7.7c-0.2,0.6-0.6,1.2-0.9,1.8h-5.8c0.4,0.6,0.8,1.2,1.3,1.8h3.3
						c-0.5,0.6-1.1,1.2-1.6,1.8c2.9,2.6,6.7,4.2,11,4.2c9,0,16.4-7.3,16.4-16.4C156.2,8.1,148.9,0.7,139.9,0.7z"/>
				</g>
			</g>
			<path class="st3" d="M154.1,26.2c0-0.2,0.2-0.5,0.5-0.5c0.2,0,0.5,0.2,0.5,0.5c0,0.2-0.2,0.5-0.5,0.5
				C154.3,26.8,154.1,26.5,154.1,26.2z M154.6,26.6c0.2,0,0.4-0.2,0.4-0.4c0-0.2-0.2-0.4-0.4-0.4c-0.2,0-0.4,0.2-0.4,0.4
				C154.2,26.4,154.3,26.6,154.6,26.6z M154.6,26.4L154.6,26.4l-0.1-0.5h0.2h0.1V26c0,0,0,0.1-0.1,0.1l0.1,0.2L154.6,26.4v-0.3h-0.1
				L154.6,26.4L154.6,26.4z M154.6,26.2L154.6,26.2C154.7,26.2,154.7,26.2,154.6,26.2L154.6,26.2L154.6,26.2
				C154.7,26.2,154.7,26.2,154.6,26.2L154.6,26.2L154.6,26.2z"/>
		</g>
		<g>
			<g>
				<path class="st4" d="M114.1,18.9c-0.2,0-0.2,0-0.4,0c-1.1,0-1.5,0.4-1.5,1.1c0,0.5,0.2,0.7,0.6,0.7
					C113.6,20.5,114.1,19.9,114.1,18.9z M115.4,21.9c-0.2,0-1.4,0-1.4,0v-0.7c-0.5,0.6-1.1,0.8-1.9,0.8c-0.9,0-1.6-0.7-1.6-1.9
					c0-1.6,1.2-2.6,3.1-2.6c0.2,0,0.5,0,0.7,0c0-0.2,0.1-0.4,0.1-0.5c0-0.5-0.4-0.6-1.2-0.6s-1.5,0.2-1.9,0.4c0-0.1,0.2-1.5,0.2-1.5
					c0.8-0.2,1.4-0.4,2.1-0.4c1.5,0,2.4,0.7,2.4,2c0,0.4,0,0.8-0.1,1.3C115.8,19.3,115.5,21.3,115.4,21.9z"/>
				<polygon class="st4" points="109.7,21.9 108,21.9 109,15.6 106.8,21.9 105.5,21.9 105.4,15.6 104.3,21.9 102.7,21.9 104.1,13.5 
					106.6,13.5 106.8,18.3 108.3,13.5 111.2,13.5 				"/>
				<path class="st4" d="M142.1,18.9c-0.2,0-0.2,0-0.4,0c-1.1,0-1.5,0.4-1.5,1.1c0,0.5,0.2,0.7,0.6,0.7
					C141.6,20.5,142.1,19.9,142.1,18.9z M143.4,21.9c-0.2,0-1.4,0-1.4,0v-0.7c-0.5,0.6-1.1,0.8-1.9,0.8c-0.9,0-1.6-0.7-1.6-1.9
					c0-1.6,1.2-2.6,3.1-2.6c0.2,0,0.5,0,0.7,0c0-0.2,0.1-0.4,0.1-0.5c0-0.5-0.4-0.6-1.2-0.6c-0.8,0-1.5,0.2-1.9,0.4
					c0-0.1,0.2-1.5,0.2-1.5c0.8-0.2,1.4-0.4,2.1-0.4c1.5,0,2.4,0.7,2.4,2c0,0.4,0,0.8-0.1,1.3C143.7,19.3,143.5,21.3,143.4,21.9z"/>
				<path class="st4" d="M123.3,21.8c-0.5,0.1-0.8,0.2-1.3,0.2c-0.9,0-1.4-0.5-1.4-1.5c0-0.4,0.1-1.1,0.2-1.8
					c0.1-0.6,0.8-4.6,0.8-4.6h1.8l-0.2,0.9h1.1l-0.2,1.6H123c-0.2,1.3-0.5,2.8-0.5,3.1c0,0.4,0.2,0.5,0.6,0.5c0.2,0,0.4,0,0.5-0.1
					L123.3,21.8z"/>
				<path class="st4" d="M128.7,21.7c-0.6,0.2-1.2,0.2-1.8,0.2c-2,0-2.9-1.1-2.9-3c0-2.4,1.3-4,3.1-4c1.4,0,2.4,0.9,2.4,2.5
					c0,0.5-0.1,0.9-0.2,1.6h-3.5c-0.1,0.9,0.5,1.4,1.5,1.4c0.6,0,1.2-0.1,1.9-0.5L128.7,21.7z M127.8,17.7c0-0.1,0.2-1.2-0.8-1.2
					c-0.6,0-0.9,0.5-1.2,1.2H127.8z"/>
				<path class="st4" d="M116.5,17.3c0,0.8,0.5,1.4,1.3,1.9c0.7,0.4,0.8,0.5,0.8,0.7c0,0.5-0.4,0.6-1.1,0.6c-0.5,0-1.1-0.1-1.5-0.2
					l-0.2,1.5c0.4,0.1,0.7,0.1,1.9,0.2c1.9,0,2.7-0.7,2.7-2.2c0-0.9-0.4-1.4-1.3-1.9c-0.7-0.4-0.8-0.5-0.8-0.7
					c0-0.4,0.4-0.6,0.8-0.6c0.4,0,0.8,0,1.3,0.1l0.2-1.5c-0.5-0.1-1.2-0.1-1.5-0.1C117.2,15,116.5,16,116.5,17.3z"/>
				<path class="st4" d="M137.3,15.2c0.5,0,0.9,0.1,1.5,0.5l0.2-1.8c-0.2-0.1-1.2-0.7-2-0.7c-1.2,0-2.2,0.6-3,1.5
					c-1.1-0.4-1.4,0.4-2,1.1l-0.5,0.1c0-0.2,0.1-0.5,0-0.7h-1.6c-0.2,2.1-0.6,4.2-0.9,6.3l-0.1,0.5h1.8c0.4-1.9,0.5-3.2,0.6-4
					l0.7-0.4c0.1-0.4,0.4-0.5,1.1-0.5c-0.1,0.5-0.1,0.9-0.1,1.4c0,2.2,1.2,3.5,3.1,3.5c0.5,0,0.9-0.1,1.5-0.2l0.4-1.9
					c-0.6,0.2-1.1,0.5-1.5,0.5c-1.1,0-1.6-0.7-1.6-2C135.1,16.5,136.1,15.2,137.3,15.2z"/>
				<path class="st4" d="M152.3,13.5l-0.4,2.4c-0.5-0.6-1.1-1.1-1.6-1.1c-0.9,0-1.6,0.7-2.2,1.6c-0.7-0.1-1.5-0.5-1.5-0.5l0,0
					c0.1-0.6,0.1-0.9,0.1-1.1h-1.6c-0.2,2.1-0.6,4.2-0.9,6.3l-0.1,0.5h1.8c0.2-1.5,0.5-2.8,0.6-3.9c0.6-0.6,0.9-1.1,1.5-0.9
					c-0.2,0.7-0.5,1.4-0.5,2.2c0,1.6,0.8,2.8,2.1,2.8c0.7,0,1.2-0.2,1.6-0.7l-0.1,0.6h1.6l1.3-8.3C154,13.5,152.3,13.5,152.3,13.5z
					 M150.2,20.3c-0.6,0-0.9-0.5-0.9-1.3c0-1.3,0.6-2.2,1.4-2.2c0.6,0,0.9,0.5,0.9,1.3C151.6,19.3,151,20.3,150.2,20.3z"/>
			</g>
			<g>
				<polygon class="st5" points="110.3,21.3 108.6,21.3 109.5,15 107.3,21.3 106.1,21.3 105.8,15.1 104.8,21.3 103.1,21.3 
					104.6,13.1 107.1,13.1 107.1,18.3 108.9,13.1 111.6,13.1 				"/>
				<path class="st5" d="M114.7,18.4c-0.2,0-0.2,0-0.4,0c-1.1,0-1.5,0.4-1.5,1.1c0,0.5,0.2,0.7,0.6,0.7
					C114.1,20,114.6,19.3,114.7,18.4z M116,21.3c-0.2,0-1.4,0-1.4,0v-0.7c-0.5,0.6-1.1,0.8-1.9,0.8c-0.9,0-1.6-0.7-1.6-1.9
					c0-1.6,1.2-2.6,3.1-2.6c0.2,0,0.5,0,0.7,0c0-0.2,0.1-0.4,0.1-0.5c0-0.5-0.4-0.6-1.2-0.6s-1.5,0.2-1.9,0.4c0-0.1,0.2-1.5,0.2-1.5
					c0.8-0.2,1.4-0.4,2.1-0.4c1.5,0,2.4,0.7,2.4,2c0,0.4,0,0.8-0.1,1.3C116.4,18.7,116,20.9,116,21.3z"/>
				<path class="st5" d="M139.7,13.3l-0.2,1.8c-0.6-0.4-1.1-0.5-1.5-0.5c-1.3,0-2.2,1.3-2.2,3.1c0,1.3,0.6,2,1.6,2
					c0.5,0,0.9-0.1,1.5-0.5l-0.4,1.9c-0.7,0.2-1.1,0.2-1.5,0.2c-1.9,0-3.1-1.4-3.1-3.5c0-3,1.6-5.1,4-5.1
					C138.5,12.8,139.5,13.2,139.7,13.3z"/>
				<path class="st5" d="M142.7,18.4c-0.2,0-0.2,0-0.4,0c-1.1,0-1.5,0.4-1.5,1.1c0,0.5,0.2,0.7,0.6,0.7
					C142.1,20,142.5,19.3,142.7,18.4z M144,21.3c-0.2,0-1.4,0-1.4,0v-0.7c-0.5,0.6-1.1,0.8-1.9,0.8c-0.9,0-1.6-0.7-1.6-1.9
					c0-1.6,1.2-2.6,3.1-2.6c0.2,0,0.5,0,0.7,0c0-0.2,0.1-0.4,0.1-0.5c0-0.5-0.4-0.6-1.2-0.6c-0.8,0-1.5,0.2-1.9,0.4
					c0-0.1,0.2-1.5,0.2-1.5c0.8-0.2,1.4-0.4,2.1-0.4c1.5,0,2.4,0.7,2.4,2c0,0.4,0,0.8-0.1,1.3C144.3,18.7,144,20.9,144,21.3z"/>
				<path class="st5" d="M123.8,21.3c-0.5,0.1-0.8,0.2-1.3,0.2c-0.9,0-1.4-0.5-1.4-1.5c0-0.4,0.1-1.1,0.2-1.8
					c0.1-0.6,0.8-4.6,0.8-4.6h1.8l-0.2,1.1h0.9l-0.2,1.5h-0.9c-0.2,1.3-0.5,2.8-0.5,3.1c0,0.4,0.2,0.5,0.6,0.5c0.2,0,0.4,0,0.5-0.1
					L123.8,21.3z"/>
				<path class="st5" d="M129.2,21.2c-0.6,0.2-1.2,0.2-1.8,0.2c-2,0-3-1.1-3-3c0-2.4,1.3-4,3.1-4c1.4,0,2.4,0.9,2.4,2.5
					c0,0.5-0.1,0.9-0.2,1.6h-3.5c-0.1,0.9,0.5,1.4,1.5,1.4c0.6,0,1.2-0.1,1.9-0.5L129.2,21.2z M128.3,17.2c0-0.1,0.2-1.2-0.8-1.2
					c-0.6,0-0.9,0.5-1.2,1.2H128.3z"/>
				<path class="st5" d="M117.1,16.7c0,0.8,0.5,1.4,1.3,1.9c0.7,0.4,0.8,0.5,0.8,0.7c0,0.5-0.4,0.6-1.1,0.6c-0.5,0-1.1-0.1-1.5-0.2
					l-0.2,1.5c0.4,0.1,0.7,0.1,1.9,0.2c1.9,0,2.7-0.7,2.7-2.2c0-0.9-0.4-1.4-1.3-1.9c-0.7-0.4-0.8-0.5-0.8-0.7
					c0-0.4,0.2-0.6,0.8-0.6c0.4,0,0.8,0,1.3,0.1l0.2-1.5c-0.5-0.1-1.2-0.1-1.5-0.1C117.6,14.5,117.1,15.6,117.1,16.7z"/>
				<path class="st5" d="M153.3,21.3h-1.7l0.1-0.6c-0.5,0.5-0.9,0.7-1.6,0.7c-1.3,0-2.1-1.1-2.1-2.8c0-2.2,1.3-4.1,2.8-4.1
					c0.7,0,1.2,0.2,1.6,0.9l0.4-2.4h1.8L153.3,21.3z M150.7,19.8c0.8,0,1.4-0.9,1.4-2.2c0-0.8-0.4-1.3-0.9-1.3
					c-0.8,0-1.4,0.9-1.4,2.2C149.7,19.3,150.1,19.8,150.7,19.8z"/>
				<path class="st5" d="M145.5,14.6c-0.2,2.1-0.6,4.2-0.9,6.3l-0.1,0.5h1.8c0.6-4.1,0.8-5,1.8-4.8c0.1-0.8,0.5-1.5,0.7-2
					c-0.7-0.1-1.2,0.2-1.6,1.1c0-0.4,0.1-0.7,0.1-1.1L145.5,14.6L145.5,14.6z"/>
				<path class="st5" d="M130.9,14.6c-0.2,2.1-0.6,4.2-0.9,6.3l-0.1,0.5h1.8c0.6-4.1,0.8-5,1.8-4.8c0.1-0.8,0.5-1.5,0.7-2
					c-0.7-0.1-1.2,0.2-1.6,1.1c0-0.4,0.1-0.7,0.1-1.1L130.9,14.6L130.9,14.6z"/>
				<g>
					<path class="st5" d="M154.1,20.9c0-0.2,0.2-0.5,0.5-0.5c0.2,0,0.5,0.2,0.5,0.5c0,0.2-0.2,0.5-0.5,0.5
						C154.3,21.3,154.1,21.1,154.1,20.9z M154.6,21.2c0.2,0,0.4-0.2,0.4-0.4c0-0.2-0.2-0.4-0.4-0.4c-0.2,0-0.4,0.2-0.4,0.4
						C154.2,21.1,154.3,21.2,154.6,21.2z M154.6,21.1L154.6,21.1l-0.1-0.5h0.2h0.1l0.1,0.1c0,0,0,0.1-0.1,0.1l0.1,0.2h-0.1l-0.1-0.2
						h-0.1L154.6,21.1L154.6,21.1z M154.6,20.9L154.6,20.9C154.7,20.9,154.7,20.9,154.6,20.9L154.6,20.9L154.6,20.9
						C154.6,20.7,154.6,20.7,154.6,20.9L154.6,20.9L154.6,20.9z"/>
				</g>
			</g>
		</g>
	</g>
</g>
<g>
	<g>
		<path class="st6" d="M190.2,4.6V32h86.3V6.3c0,0-9.9-7.9-33.6-3.1c-11.1,1.8-23.6,2.6-19.1-2.3C219.2,0.4,208.8-0.7,190.2,4.6z"/>
	</g>
	<path class="st5" d="M195.4,12v14.3h3.5c0,0,0-8.9,0-9.1s0.2-0.3,0.3,0c0.1,0.1,4.3,8,4.3,8s0.6,1.4,2.2,1.3c1.4,0,2.1-1.2,2.1-2
		s0-14.2,0-14.2h-3.9v8.1c0,0-0.1,0.5-0.4,0s-3.6-7.1-3.6-7.1s-0.7-1.4-2.3-1.4C195.9,10,195.4,11.5,195.4,12z"/>
	<path class="st5" d="M195.4,13"/>
	<path class="st5" d="M213.8,19.7l1.5,2.1l5.9-3.9c0,0-1.7-3.8-5.6-3.8s-6.4,3.1-6.4,6.4s2.8,6.2,6.2,6.2c3.3,0,6-2.7,6.7-4.7
		c-1.5-0.8-2.8-1.5-2.8-1.5s-1.2,2.8-3.8,2.7c-2-0.1-2.6-2.2-2.6-2.7s-0.3-1.9,1.2-3s2.8-0.2,2.9,0C216.3,18,213.8,19.7,213.8,19.7z
		"/>
	<path class="st5" d="M235,19.6c0-0.2-0.1-0.5-0.1-0.7c-0.1-0.3-0.2-0.7-0.3-0.9c-0.9-2.2-3-4-6.2-3.9c-0.2,0-0.4,0-0.7,0.1
		c-0.5,0.1-0.9,0.2-1.3,0.4c-1.7,0.7-2.9,2-3.6,3.7c-0.2,0.4-0.2,0.8-0.3,1.2c0,0.1,0,0.2,0,0.3c-0.2,0.7,0,1.7,0.2,2.2
		c0.1,0.3,0.1,0.5,0.3,0.8c0.7,1.5,1.8,2.7,3.3,3.3c0.3,0.1,0.7,0.3,1.1,0.4c0.3,0.1,0.5,0,0.8,0.1c0.2,0,0.7,0.1,0.9,0
		c0.2,0,0.4,0,0.7-0.1c0.4-0.1,0.8-0.2,1.2-0.3c1.7-0.7,2.9-1.8,3.6-3.5c0.2-0.5,0.3-1,0.4-1.5c0-0.2,0-0.4,0-0.6
		C235.1,20.5,235,19.8,235,19.6z M231.1,20.7c0,0.2-0.1,0.4-0.2,0.6c-0.3,0.7-0.8,1.2-1.5,1.4c-0.2,0.1-0.4,0.1-0.6,0.1
		c-0.4,0.1-0.9-0.1-1.1-0.2c-0.8-0.3-1.2-0.9-1.4-1.7c-0.1-0.3-0.1-0.8-0.1-1.1c0-0.2,0.1-0.3,0.1-0.5c0.2-0.6,0.7-1.1,1.3-1.4
		c0.2-0.1,0.3-0.1,0.5-0.2c0.1,0,0.2,0,0.3,0c0.3,0,0.6,0,0.8,0.1c0.9,0.3,1.4,0.8,1.7,1.7C231.1,19.9,231.2,20.4,231.1,20.7z"/>
	<path class="st7" d="M229.3,17.9c-0.2-0.1-0.5-0.1-0.8-0.1c-0.1,0-0.2,0-0.3,0c-0.2,0-0.4,0.1-0.5,0.2c-0.6,0.3-1.1,0.8-1.3,1.4
		c0,0.2-0.1,0.3-0.1,0.5c-0.1,0.3,0,0.8,0.1,1.1c0.3,0.8,0.7,1.4,1.4,1.7c0.2,0.1,0.7,0.3,1.1,0.2c0.2,0,0.4-0.1,0.6-0.1
		c0.7-0.3,1.2-0.8,1.5-1.4c0.1-0.2,0.1-0.4,0.2-0.6c0.1-0.4,0-0.9-0.1-1.1C230.7,18.7,230.2,18.2,229.3,17.9z"/>
	<path class="st5" d="M239.1,23h-3.7v3.4h4.6c0,0,4-0.1,4-3.4c0-1.4-0.4-2.5-2.4-3.5c-1.6-0.8-2.3-1-2.3-1.5s0.4-0.5,0.6-0.5
		s3.3,0,3.3,0v-3.1h-4.4c0,0-3.2,0.3-3.2,3.1c0,1.6,0.2,3,2.3,3.7c2.1,0.7,2,0.9,2,1.2S239.9,23,239.1,23"/>
	<path class="st5" d="M248.9,14.5H245V22c0,0,0.6,4.7,5,4.7s5.4-3.8,5.4-4.7c0-0.9,0-7.5,0-7.5h-3.8v6.8c0,0-0.1,1.6-1.4,1.6
		s-1.3-1.6-1.3-1.6L248.9,14.5L248.9,14.5z"/>
	<path class="st5" d="M256.8,14.5v11.9h4v-5.9c0,0-0.4-2.5,2.9-2.5c0-1.8,0-3.5,0-3.5s-2.4-0.2-2.9,1c-0.2,0.4-0.2,0.7-0.4,0.7
		s-0.2-0.4-0.2-0.4v-1.3C260.2,14.5,256.8,14.5,256.8,14.5z"/>
	<path class="st5" d="M271.5,9.2v3.6H270c0,0-1.5,0.1-1.5,0.8c0,0.4,0,0.8,0,0.8h2.4v3.5h-2.4v8.5h-4v-12c0,0-0.5-4.5,4-5.2
		C270.1,9.2,271.5,9.2,271.5,9.2z"/>
</g>
<g>
	<path class="st8" d="M345.5,17.2c0,9.5-7.7,17.2-17.2,17.2s-17.2-7.7-17.2-17.2S318.8,0,328.3,0S345.5,7.7,345.5,17.2"/>
	<path class="st5" d="M334.4,16.7L334.4,16.7c1.6-0.9,2.5-2.4,2.5-4.4c0-2.2-1.2-3.8-2.8-4.5c-1-0.5-2.1-0.6-3.5-0.6h-0.8V5.5
		c0-0.3-0.3-0.6-0.6-0.6h-1.7c-0.3,0-0.6,0.3-0.6,0.6v1.7H325V5.5c0-0.3-0.3-0.6-0.6-0.6h-1.6c-0.3,0-0.6,0.3-0.6,0.6v1.7h-1.7
		c-0.2,0-0.4,0.2-0.4,0.4v1.6c0,0.2,0.2,0.4,0.4,0.4h1.7v15.5h-1.6c-0.3,0-0.5,0.2-0.5,0.5V27c0,0.3,0.2,0.5,0.5,0.5h1.6v1.6
		c0,0.3,0.3,0.6,0.6,0.6h1.7c0.3,0,0.6-0.3,0.6-0.6v-1.6h1.9v1.6c0,0.3,0.3,0.6,0.6,0.6h1.7c0.3,0,0.6-0.3,0.6-0.6v-1.6h1.1
		c1.1,0,2.1-0.1,3-0.4c2.1-0.7,3.7-2.7,3.7-5.4C337.7,19.3,336.6,17.3,334.4,16.7 M330.6,9.5c0.9,0,1.5,0.1,2.1,0.4
		c0.9,0.5,1.3,1.5,1.3,2.7c0,1.8-1.1,3.1-3,3.1h-5.9V9.5H330.6z M332.9,24.7c-0.5,0.2-1.2,0.3-1.8,0.3h-6v-7h6.2
		c2.1,0,3.5,1.4,3.5,3.5C334.8,22.9,334.1,24.2,332.9,24.7"/>
</g>
</svg>
