<?xml version="1.0" encoding="utf-8"?>
<!-- Generator: Adobe Illustrator 17.0.0, SVG Export Plug-In . SVG Version: 6.00 Build 0)  -->
<!DOCTYPE svg PUBLIC "-//W3C//DTD SVG 1.1//EN" "http://www.w3.org/Graphics/SVG/1.1/DTD/svg11.dtd">
<svg version="1.1" id="Layer_1" xmlns="http://www.w3.org/2000/svg" xmlns:xlink="http://www.w3.org/1999/xlink" x="0px" y="0px"
	 width="76px" height="76px" viewBox="0 0 76 76" enable-background="new 0 0 76 76" xml:space="preserve">
<g id="XMLID_348_">
	<path id="XMLID_361_" fill="#A6D300" d="M45.66,21.415h-0.5c-0.41-0.31-0.94-0.5-1.49-0.5h-10.6c-0.56,0-1.08,0.18-1.49,0.5h-0.51
		v0.51c-0.32,0.41-0.5,0.93-0.5,1.49v16.93c0,0.56,0.19,1.08,0.5,1.5v0.5h0.51c0.41,0.32,0.93,0.5,1.49,0.5h10.6
		c0.55,0,1.08-0.19,1.49-0.5h0.5v-0.5c0.32-0.42,0.51-0.94,0.51-1.5v-16.93c0-0.56-0.19-1.09-0.51-1.5V21.415z M36.49,35.005
		c0.3,0.27,0.72,0.41,1.28,0.41c0.53,0,0.94-0.15,1.26-0.46s0.47-0.72,0.47-1.27v-5.53h-1.19v-1.1h3.62v1.1h-1.14v5.53
		c0,0.9-0.29,1.64-0.86,2.19c-0.56,0.55-1.29,0.83-2.16,0.83c-0.88,0-1.6-0.25-2.14-0.74c-0.57-0.51-0.85-1.23-0.82-2.14v-1.09h1.29
		v1.11C36.08,34.375,36.21,34.755,36.49,35.005z"/>
	<path id="XMLID_592_" fill="#A6D300" d="M63.77,21.415h-0.51c-0.42-0.31-0.94-0.5-1.5-0.5H51.17c-0.56,0-1.08,0.18-1.49,0.5h-0.51
		v0.51c-0.32,0.41-0.5,0.93-0.5,1.49v16.93c0,0.56,0.19,1.08,0.5,1.5v0.5h0.51c0.41,0.32,0.93,0.5,1.49,0.5h10.59
		c0.56,0,1.08-0.19,1.5-0.5h0.51v-0.52c0.31-0.42,0.49-0.93,0.49-1.48v-16.93c0-0.55-0.18-1.07-0.49-1.48V21.415z M54.59,35.005
		c0.3,0.27,0.72,0.41,1.28,0.41c0.53,0,0.94-0.15,1.26-0.46c0.32-0.31,0.47-0.72,0.47-1.27v-5.53h-1.19v-1.1h3.62v1.1h-1.14v5.53
		c0,0.9-0.29,1.64-0.86,2.19c-0.56,0.55-1.29,0.83-2.16,0.83c-0.88,0-1.6-0.25-2.14-0.74c-0.57-0.51-0.85-1.23-0.82-2.14v-1.09h1.29
		v1.11C54.19,34.375,54.31,34.755,54.59,35.005z"/>
	<path id="XMLID_601_" fill="#A6D300" d="M27.33,21.415h-0.5c-0.41-0.31-0.94-0.5-1.5-0.5h-10.6c-0.56,0-1.08,0.18-1.49,0.5h-0.51
		v0.51c-0.32,0.41-0.5,0.93-0.5,1.49v16.93c0,0.56,0.19,1.08,0.5,1.5v0.5h0.51c0.41,0.32,0.93,0.5,1.49,0.5h10.6
		c0.56,0,1.09-0.19,1.5-0.5h0.5v-0.5c0.31-0.42,0.5-0.94,0.5-1.5v-16.93c0-0.56-0.18-1.08-0.5-1.49V21.415z M24.38,31.865
		l-4.14,5.74l-0.65-0.9l-0.65-0.9l-2.85-3.94l4.15-5.71l1.29,1.78l1.02,1.41L24.38,31.865z"/>
	<path id="XMLID_609_" fill="#A6D300" d="M72.66,14.095c-0.97-3.28-3.32-6.1-6.43-7.73c-4.42-2.32-17.48-3.21-28.24-3.26
		c-10.74,0.05-23.8,0.94-28.22,3.26c-3.11,1.63-5.46,4.45-6.43,7.73c-1.07,3.62-1.74,10.27-1.77,17.78v0.01
		c0.03,7.51,0.7,14.15,1.77,17.78c0.97,3.28,3.32,6.09,6.43,7.73c4.42,2.32,17.48,3.2,28.23,3.25c10.75-0.05,23.81-0.93,28.23-3.25
		c3.11-1.64,5.46-4.45,6.43-7.73c1.07-3.63,1.73-10.27,1.77-17.79C74.39,24.365,73.73,17.715,72.66,14.095z M70.74,49.095
		c-0.82,2.76-2.8,5.14-5.44,6.53c-3.38,1.78-14.1,2.96-27.3,3.02c-13.2-0.06-23.92-1.24-27.3-3.02c-2.64-1.39-4.62-3.77-5.44-6.53
		c-1.01-3.4-1.66-10-1.69-17.22c0.03-7.21,0.68-13.81,1.69-17.21c0.82-2.77,2.8-5.15,5.44-6.53c3.38-1.78,14.09-2.96,27.29-3.03
		c13.22,0.07,23.93,1.25,27.31,3.03c2.64,1.38,4.62,3.76,5.44,6.52c1.01,3.41,1.65,10.01,1.69,17.22
		C72.39,39.095,71.75,45.695,70.74,49.095z"/>
	<path id="XMLID_612_" fill="#A6D300" d="M24.55,65.895h-6c-1.38,0-2.5,1.12-2.5,2.5v2c0,1.38,1.12,2.5,2.5,2.5h6
		c1.38,0,2.5-1.12,2.5-2.5v-2C27.05,67.015,25.93,65.895,24.55,65.895z M26.05,70.395c0,0.83-0.68,1.5-1.5,1.5h-6
		c-0.83,0-1.5-0.67-1.5-1.5v-2c0-0.83,0.67-1.5,1.5-1.5h6c0.82,0,1.5,0.67,1.5,1.5V70.395z"/>
	<path id="XMLID_615_" fill="#A6D300" d="M40.37,65.895h-6c-1.38,0-2.5,1.12-2.5,2.5v2c0,1.38,1.12,2.5,2.5,2.5h6
		c1.38,0,2.5-1.12,2.5-2.5v-2C42.87,67.015,41.75,65.895,40.37,65.895z M41.87,70.395c0,0.83-0.68,1.5-1.5,1.5h-6
		c-0.83,0-1.5-0.67-1.5-1.5v-2c0-0.83,0.67-1.5,1.5-1.5h6c0.82,0,1.5,0.67,1.5,1.5V70.395z"/>
	<path id="XMLID_618_" fill="#A6D300" d="M56.19,65.895h-6c-1.38,0-2.5,1.12-2.5,2.5v2c0,1.38,1.12,2.5,2.5,2.5h6
		c1.37,0,2.5-1.12,2.5-2.5v-2C58.69,67.015,57.56,65.895,56.19,65.895z M57.69,70.395c0,0.83-0.68,1.5-1.5,1.5h-6
		c-0.83,0-1.5-0.67-1.5-1.5v-2c0-0.83,0.67-1.5,1.5-1.5h6c0.82,0,1.5,0.67,1.5,1.5V70.395z"/>
</g>
</svg>
